<?xml version="1.0" encoding="UTF-8"?>
<svg width="1060px" height="334px" viewBox="0 0 1060 334" version="1.1" xmlns="http://www.w3.org/2000/svg" xmlns:xlink="http://www.w3.org/1999/xlink">
    <title>配置防护站点（4）</title>
    <defs>
        <rect id="path-1" x="0" y="83" width="140" height="140" rx="12"></rect>
        <filter x="-50.0%" y="-35.7%" width="200.0%" height="200.0%" filterUnits="objectBoundingBox" id="filter-2">
            <feOffset dx="0" dy="20" in="SourceAlpha" result="shadowOffsetOuter1"></feOffset>
            <feGaussianBlur stdDeviation="20" in="shadowOffsetOuter1" result="shadowBlurOuter1"></feGaussianBlur>
            <feColorMatrix values="0 0 0 0 0.568627451   0 0 0 0 0.619607843   0 0 0 0 0.670588235  0 0 0 0.2 0" type="matrix" in="shadowBlurOuter1"></feColorMatrix>
        </filter>
        <rect id="path-3" x="210" y="83" width="140" height="140" rx="12"></rect>
        <filter x="-50.0%" y="-35.7%" width="200.0%" height="200.0%" filterUnits="objectBoundingBox" id="filter-4">
            <feOffset dx="0" dy="20" in="SourceAlpha" result="shadowOffsetOuter1"></feOffset>
            <feGaussianBlur stdDeviation="20" in="shadowOffsetOuter1" result="shadowBlurOuter1"></feGaussianBlur>
            <feColorMatrix values="0 0 0 0 0.568627451   0 0 0 0 0.619607843   0 0 0 0 0.670588235  0 0 0 0.2 0" type="matrix" in="shadowBlurOuter1"></feColorMatrix>
        </filter>
        <rect id="path-5" x="630" y="83" width="140" height="140" rx="12"></rect>
        <filter x="-50.0%" y="-35.7%" width="200.0%" height="200.0%" filterUnits="objectBoundingBox" id="filter-6">
            <feOffset dx="0" dy="20" in="SourceAlpha" result="shadowOffsetOuter1"></feOffset>
            <feGaussianBlur stdDeviation="20" in="shadowOffsetOuter1" result="shadowBlurOuter1"></feGaussianBlur>
            <feColorMatrix values="0 0 0 0 0.568627451   0 0 0 0 0.619607843   0 0 0 0 0.670588235  0 0 0 0.2 0" type="matrix" in="shadowBlurOuter1"></feColorMatrix>
        </filter>
        <rect id="path-7" x="840" y="83" width="140" height="140" rx="12"></rect>
        <filter x="-50.0%" y="-35.7%" width="200.0%" height="200.0%" filterUnits="objectBoundingBox" id="filter-8">
            <feOffset dx="0" dy="20" in="SourceAlpha" result="shadowOffsetOuter1"></feOffset>
            <feGaussianBlur stdDeviation="20" in="shadowOffsetOuter1" result="shadowBlurOuter1"></feGaussianBlur>
            <feColorMatrix values="0 0 0 0 0.568627451   0 0 0 0 0.619607843   0 0 0 0 0.670588235  0 0 0 0.2 0" type="matrix" in="shadowBlurOuter1"></feColorMatrix>
        </filter>
        <rect id="path-9" x="420" y="83" width="140" height="140" rx="12"></rect>
        <filter x="-50.0%" y="-35.7%" width="200.0%" height="200.0%" filterUnits="objectBoundingBox" id="filter-10">
            <feOffset dx="0" dy="20" in="SourceAlpha" result="shadowOffsetOuter1"></feOffset>
            <feGaussianBlur stdDeviation="20" in="shadowOffsetOuter1" result="shadowBlurOuter1"></feGaussianBlur>
            <feColorMatrix values="0 0 0 0 0.568627451   0 0 0 0 0.619607843   0 0 0 0 0.670588235  0 0 0 0.2 0" type="matrix" in="shadowBlurOuter1"></feColorMatrix>
        </filter>
        <rect id="path-11" x="35" y="118" width="70" height="70" rx="12"></rect>
        <filter x="-26.4%" y="-16.4%" width="152.9%" height="152.9%" filterUnits="objectBoundingBox" id="filter-12">
            <feOffset dx="0" dy="7" in="SourceAlpha" result="shadowOffsetOuter1"></feOffset>
            <feGaussianBlur stdDeviation="5" in="shadowOffsetOuter1" result="shadowBlurOuter1"></feGaussianBlur>
            <feColorMatrix values="0 0 0 0 0.568627451   0 0 0 0 0.619607843   0 0 0 0 0.670588235  0 0 0 0.3 0" type="matrix" in="shadowBlurOuter1"></feColorMatrix>
        </filter>
        <path d="M85.683871,138 C86.3419355,138 87,138.709924 87,139.419847 L87,163.793893 C87,164.503817 86.3419355,165.21374 85.683871,165.21374 L71.2064516,165.21374 L71.2064516,167.10687 L78.4451613,167.10687 C78.883871,167.10687 79.3225806,167.580153 79.3225806,168.053435 C79.3225806,168.526718 78.883871,169 78.4451613,169 L61.3354839,169 C60.8967742,169 60.4580645,168.526718 60.4580645,168.053435 C60.4580645,167.580153 60.8967742,167.10687 61.3354839,167.10687 L68.5741935,167.10687 L68.5741935,165.21374 L54.316129,165.21374 C53.6580645,165.21374 53,164.503817 53,163.793893 L53,139.419847 C53,138.473282 53.4387097,138 54.316129,138 L85.683871,138 Z M82,142 L58,142 C57.4477153,142 57,142.447715 57,143 L57,143 L57,160 C57,160.552285 57.4477153,161 58,161 L58,161 L82,161 C82.5522847,161 83,160.552285 83,160 L83,160 L83,143 C83,142.447715 82.5522847,142 82,142 L82,142 Z" id="path-13"></path>
        <filter x="-20.6%" y="-16.1%" width="141.2%" height="145.2%" filterUnits="objectBoundingBox" id="filter-14">
            <feOffset dx="0" dy="2" in="SourceAlpha" result="shadowOffsetOuter1"></feOffset>
            <feGaussianBlur stdDeviation="2" in="shadowOffsetOuter1" result="shadowBlurOuter1"></feGaussianBlur>
            <feColorMatrix values="0 0 0 0 0.0588235294   0 0 0 0 0.776470588   0 0 0 0 0.760784314  0 0 0 0.3 0" type="matrix" in="shadowBlurOuter1"></feColorMatrix>
        </filter>
        <rect id="path-15" x="89" y="172" width="24" height="24" rx="4"></rect>
        <filter x="-77.1%" y="-47.9%" width="254.2%" height="254.2%" filterUnits="objectBoundingBox" id="filter-16">
            <feOffset dx="0" dy="7" in="SourceAlpha" result="shadowOffsetOuter1"></feOffset>
            <feGaussianBlur stdDeviation="5" in="shadowOffsetOuter1" result="shadowBlurOuter1"></feGaussianBlur>
            <feColorMatrix values="0 0 0 0 1   0 0 0 0 0.352941176   0 0 0 0 0.368627451  0 0 0 0.3 0" type="matrix" in="shadowBlurOuter1"></feColorMatrix>
        </filter>
        <rect id="path-17" x="245" y="118" width="70" height="70" rx="12"></rect>
        <filter x="-26.4%" y="-16.4%" width="152.9%" height="152.9%" filterUnits="objectBoundingBox" id="filter-18">
            <feOffset dx="0" dy="7" in="SourceAlpha" result="shadowOffsetOuter1"></feOffset>
            <feGaussianBlur stdDeviation="5" in="shadowOffsetOuter1" result="shadowBlurOuter1"></feGaussianBlur>
            <feColorMatrix values="0 0 0 0 0.568627451   0 0 0 0 0.619607843   0 0 0 0 0.670588235  0 0 0 0.3 0" type="matrix" in="shadowBlurOuter1"></feColorMatrix>
        </filter>
        <rect id="path-19" x="665" y="118" width="70" height="70" rx="12"></rect>
        <filter x="-26.4%" y="-16.4%" width="152.9%" height="152.9%" filterUnits="objectBoundingBox" id="filter-20">
            <feOffset dx="0" dy="7" in="SourceAlpha" result="shadowOffsetOuter1"></feOffset>
            <feGaussianBlur stdDeviation="5" in="shadowOffsetOuter1" result="shadowBlurOuter1"></feGaussianBlur>
            <feColorMatrix values="0 0 0 0 0.568627451   0 0 0 0 0.619607843   0 0 0 0 0.670588235  0 0 0 0.3 0" type="matrix" in="shadowBlurOuter1"></feColorMatrix>
        </filter>
        <circle id="path-21" cx="280" cy="153" r="24"></circle>
        <mask id="mask-22" maskContentUnits="userSpaceOnUse" maskUnits="objectBoundingBox" x="0" y="0" width="48" height="48" fill="white">
            <use xlink:href="#path-21"></use>
        </mask>
        <circle id="path-23" cx="700" cy="153" r="24"></circle>
        <mask id="mask-24" maskContentUnits="userSpaceOnUse" maskUnits="objectBoundingBox" x="0" y="0" width="48" height="48" fill="white">
            <use xlink:href="#path-23"></use>
        </mask>
        <circle id="path-25" cx="280" cy="153" r="14"></circle>
        <mask id="mask-26" maskContentUnits="userSpaceOnUse" maskUnits="objectBoundingBox" x="0" y="0" width="28" height="28" fill="white">
            <use xlink:href="#path-25"></use>
        </mask>
        <circle id="path-27" cx="700" cy="153" r="14"></circle>
        <mask id="mask-28" maskContentUnits="userSpaceOnUse" maskUnits="objectBoundingBox" x="0" y="0" width="28" height="28" fill="white">
            <use xlink:href="#path-27"></use>
        </mask>
        <rect id="path-29" x="875" y="118" width="70" height="70" rx="12"></rect>
        <filter x="-26.4%" y="-16.4%" width="152.9%" height="152.9%" filterUnits="objectBoundingBox" id="filter-30">
            <feOffset dx="0" dy="7" in="SourceAlpha" result="shadowOffsetOuter1"></feOffset>
            <feGaussianBlur stdDeviation="5" in="shadowOffsetOuter1" result="shadowBlurOuter1"></feGaussianBlur>
            <feColorMatrix values="0 0 0 0 0.568627451   0 0 0 0 0.619607843   0 0 0 0 0.670588235  0 0 0 0.3 0" type="matrix" in="shadowBlurOuter1"></feColorMatrix>
        </filter>
        <path d="M519.670519,135.412908 C519.485903,134.297016 518.932053,133.181124 517.824353,132.623178 C509.701221,127.973629 492.71649,119.790423 491.978023,119.418459 C491.05494,118.860514 489.762624,118.860514 488.83954,119.418459 C488.101074,119.790423 471.30096,127.973629 463.177827,132.623178 C462.070128,133.181124 461.516278,134.297016 461.331661,135.412908 C457.454712,173.167245 488.83954,185.628036 489.208774,185.814018 C489.578007,186 490.131857,186 490.50109,186 C490.870323,186 491.424173,186 491.793407,185.814018 C492.16264,185.628036 499.916539,182.652325 507.301204,174.841083 C513.947403,167.773768 521.701302,155.126995 519.670519,135.412908 Z" id="path-31"></path>
        <filter x="-28.9%" y="-19.4%" width="158.1%" height="150.7%" filterUnits="objectBoundingBox" id="filter-32">
            <feOffset dx="0" dy="4" in="SourceAlpha" result="shadowOffsetOuter1"></feOffset>
            <feGaussianBlur stdDeviation="5" in="shadowOffsetOuter1" result="shadowBlurOuter1"></feGaussianBlur>
            <feColorMatrix values="0 0 0 0 0.568627451   0 0 0 0 0.619607843   0 0 0 0 0.670588235  0 0 0 0.301054414 0" type="matrix" in="shadowBlurOuter1"></feColorMatrix>
        </filter>
        <polygon id="path-33" points="487.632574 136.895939 497.715734 135.961023 493.767773 148.263462 499.096653 147.769365 485.550313 169.658537 487.068478 153.703878 482.660724 154.112568"></polygon>
        <filter x="-42.6%" y="-14.8%" width="185.2%" height="141.5%" filterUnits="objectBoundingBox" id="filter-34">
            <feOffset dx="0" dy="2" in="SourceAlpha" result="shadowOffsetOuter1"></feOffset>
            <feGaussianBlur stdDeviation="2" in="shadowOffsetOuter1" result="shadowBlurOuter1"></feGaussianBlur>
            <feColorMatrix values="0 0 0 0 0.258823529   0 0 0 0 0.560784314   0 0 0 0 0.976470588  0 0 0 0.3 0" type="matrix" in="shadowBlurOuter1"></feColorMatrix>
        </filter>
    </defs>
    <g id="官网设计" stroke="none" stroke-width="1" fill="none" fill-rule="evenodd">
        <g id="客户端-雷池-服务器其他反代" transform="translate(-17.000000, -25.000000)">
            <g id="配置防护站点（4）" transform="translate(57.000000, 25.000000)">
                <g id="矩形">
                    <use fill="black" fill-opacity="1" filter="url(#filter-2)" xlink:href="#path-1"></use>
                    <use fill="#FFFFFF" fill-rule="evenodd" xlink:href="#path-1"></use>
                </g>
                <g id="矩形备份">
                    <use fill="black" fill-opacity="1" filter="url(#filter-4)" xlink:href="#path-3"></use>
                    <use fill="#FFFFFF" fill-rule="evenodd" xlink:href="#path-3"></use>
                </g>
                <g id="矩形备份-3">
                    <use fill="black" fill-opacity="1" filter="url(#filter-6)" xlink:href="#path-5"></use>
                    <use fill="#FFFFFF" fill-rule="evenodd" xlink:href="#path-5"></use>
                </g>
                <g id="矩形备份-5">
                    <use fill="black" fill-opacity="1" filter="url(#filter-8)" xlink:href="#path-7"></use>
                    <use fill="#FFFFFF" fill-rule="evenodd" xlink:href="#path-7"></use>
                </g>
                <g id="矩形备份-2">
                    <use fill="black" fill-opacity="1" filter="url(#filter-10)" xlink:href="#path-9"></use>
                    <use fill="#FFFFFF" fill-rule="evenodd" xlink:href="#path-9"></use>
                </g>
                <circle id="椭圆形" stroke="#0FC6C2" stroke-width="3" cx="140" cy="153" r="6.5"></circle>
                <circle id="椭圆形备份-2881" stroke="#0FC6C2" stroke-width="3" cx="560" cy="153" r="6.5"></circle>
                <circle id="椭圆形备份-2884" stroke="#0FC6C2" stroke-width="3" cx="770" cy="153" r="6.5"></circle>
                <circle id="椭圆形备份-2880" stroke="#0FC6C2" stroke-width="3" cx="350" cy="153" r="6.5"></circle>
                <path id="路径-104" d="M194,146 L208,153 L194,160 L194,154 L148,154 L148,152 L194,152 L194,146 Z" fill="#0FC6C2" fill-rule="nonzero"></path>
                <path id="路径-104备份-2" d="M614,146 L628,153 L614,160 L614,154 L568,154 L568,152 L614,152 L614,146 Z" fill="#0FC6C2" fill-rule="nonzero"></path>
                <path id="路径-104备份-4" d="M545.477884,7.06421223 L553.477884,11.5642122 L554.252618,12 L553.477884,12.4357878 L545.477884,16.9357878 L544.987623,16.0642122 L551.322,12.5 L530,12.5 L530,11.5 L551.326,11.5 L544.987623,7.93578777 L545.477884,7.06421223 Z" fill="#000000" fill-rule="nonzero"></path>
                <path id="路径-104备份-3" d="M824,146 L838,153 L824,160 L824,154 L778,154 L778,152 L824,152 L824,146 Z" fill="#0FC6C2" fill-rule="nonzero"></path>
                <path id="路径-104备份" d="M404,146 L418,153 L404,160 L404,154 L358,154 L358,152 L404,152 L404,146 Z" fill="#0FC6C2" fill-rule="nonzero"></path>
                <text id="客户端备份" font-family="PingFangSC-Semibold, PingFang SC" font-size="20" font-weight="500" line-spacing="28" fill="#000000">
                    <tspan x="40" y="259">客户端</tspan>
                </text>
                <text id="niginx" font-family="PingFangSC-Semibold, PingFang SC" font-size="20" font-weight="500" line-spacing="28" fill="#000000">
                    <tspan x="251.49" y="259">niginx</tspan>
                </text>
                <text id="niginx备份" font-family="PingFangSC-Semibold, PingFang SC" font-size="20" font-weight="500" line-spacing="28" fill="#000000">
                    <tspan x="671.49" y="259">niginx</tspan>
                </text>
                <text id="网站服务器" font-family="PingFangSC-Semibold, PingFang SC" font-size="20" font-weight="500" line-spacing="28" fill="#000000">
                    <tspan x="860" y="259">网站服务器</tspan>
                </text>
                <text id="雷池" font-family="PingFangSC-Semibold, PingFang SC" font-size="20" font-weight="500" line-spacing="28" fill="#000000">
                    <tspan x="470" y="259">雷池</tspan>
                </text>
                <text id="http(s)://example.co备份-2" font-family="PingFangSC-Regular, PingFang SC" font-size="14" font-weight="normal" line-spacing="22" fill="#000000" fill-opacity="0.5">
                    <tspan x="207.249" y="285">http(s)://example.com</tspan>
                </text>
                <text id="http(s)://192.168.10" font-family="PingFangSC-Regular, PingFang SC" font-size="14" font-weight="normal" line-spacing="22" fill="#000000" fill-opacity="0.5">
                    <tspan x="418.019" y="285">http(s)://192.168.10.10</tspan>
                </text>
                <g id="矩形备份-67">
                    <use fill="black" fill-opacity="1" filter="url(#filter-12)" xlink:href="#path-11"></use>
                    <use fill="#FFFFFF" fill-rule="evenodd" xlink:href="#path-11"></use>
                </g>
                <g id="形状结合备份-5" fill-rule="nonzero">
                    <use fill="black" fill-opacity="1" filter="url(#filter-14)" xlink:href="#path-13"></use>
                    <use fill="#0FC6C2" xlink:href="#path-13"></use>
                </g>
                <g id="矩形备份-69">
                    <use fill="black" fill-opacity="1" filter="url(#filter-16)" xlink:href="#path-15"></use>
                    <use fill="#FF5A5E" fill-rule="evenodd" xlink:href="#path-15"></use>
                </g>
                <circle id="椭圆形备份-2894" fill="#FFFFFF" cx="95.5" cy="178.5" r="2.5"></circle>
                <circle id="椭圆形备份-2895" fill="#FFFFFF" cx="106.5" cy="189.5" r="2.5"></circle>
                <path d="M95.5,178.5 C97.941757,178.133563 99.7750903,178.60662 101,179.919172 C102.837365,181.888 100.588463,186.519891 101.966024,188.266298 C102.884398,189.430569 104.395723,189.841803 106.5,189.5" id="路径-82备份" stroke="#FFFFFF"></path>
                <text id="和其他反代设备一起部署" font-family="PingFangSC-Semibold, PingFang SC" font-size="16" font-weight="500" line-spacing="24" fill="#000000">
                    <tspan x="402" y="327">和其他反代设备一起部署</tspan>
                </text>
                <text id="请求方向" font-family="PingFangSC-Semibold, PingFang SC" font-size="16" font-weight="500" line-spacing="24" fill="#000000">
                    <tspan x="458" y="17">请求方向</tspan>
                </text>
                <g id="矩形备份-12">
                    <use fill="black" fill-opacity="1" filter="url(#filter-18)" xlink:href="#path-17"></use>
                    <use fill="#FFFFFF" fill-rule="evenodd" xlink:href="#path-17"></use>
                </g>
                <g id="矩形备份-13">
                    <use fill="black" fill-opacity="1" filter="url(#filter-20)" xlink:href="#path-19"></use>
                    <use fill="#FFFFFF" fill-rule="evenodd" xlink:href="#path-19"></use>
                </g>
                <use id="椭圆形" stroke="#E3E8EF" mask="url(#mask-22)" stroke-width="2" stroke-dasharray="4" xlink:href="#path-21"></use>
                <use id="椭圆形备份-2882" stroke="#E3E8EF" mask="url(#mask-24)" stroke-width="2" stroke-dasharray="4" xlink:href="#path-23"></use>
                <use id="椭圆形" stroke="#E3E8EF" mask="url(#mask-26)" stroke-width="2" stroke-dasharray="4" xlink:href="#path-25"></use>
                <use id="椭圆形备份-2883" stroke="#E3E8EF" mask="url(#mask-28)" stroke-width="2" stroke-dasharray="4" xlink:href="#path-27"></use>
                <rect id="矩形" fill="#FFFFFF" x="249" y="147" width="62" height="13" rx="1"></rect>
                <rect id="矩形备份-4" fill="#FFFFFF" x="669" y="147" width="62" height="13" rx="1"></rect>
                <text id="HTTP" font-family="AlimamaShuHeiTi-Bold, Alimama ShuHeiTi" font-size="12" font-weight="bold" line-spacing="20" fill="#000000">
                    <tspan x="271.994" y="156">HTTP</tspan>
                </text>
                <text id="HTTP备份" font-family="AlimamaShuHeiTi-Bold, Alimama ShuHeiTi" font-size="12" font-weight="bold" line-spacing="20" fill="#000000">
                    <tspan x="691.994" y="156">HTTP</tspan>
                </text>
                <g id="左箭头-(1)" transform="translate(261.500000, 154.000000) scale(1, -1) translate(-261.500000, -154.000000) translate(257.000000, 151.000000)" fill="#0FC6C2" fill-rule="nonzero">
                    <polygon id="形状" points="5.36547198 0 4.27624937 0.608615611 1.09603735 2.38696613 0 3 1.09603735 3.61303387 4.27624937 5.39138439 5.36547198 6 5.36547198 4.77835052 5.36547198 4.41384389 8.2730944 4.41384389 9 4.41384389 9 3.70692194 9 2.29307806 9 1.58615611 8.2730944 1.58615611 5.36547198 1.58615611 5.36547198 1.22164948"></polygon>
                </g>
                <g id="左箭头-(1)备份" transform="translate(681.500000, 154.000000) scale(1, -1) translate(-681.500000, -154.000000) translate(677.000000, 151.000000)" fill="#0FC6C2" fill-rule="nonzero">
                    <polygon id="形状" points="5.36547198 0 4.27624937 0.608615611 1.09603735 2.38696613 0 3 1.09603735 3.61303387 4.27624937 5.39138439 5.36547198 6 5.36547198 4.77835052 5.36547198 4.41384389 8.2730944 4.41384389 9 4.41384389 9 3.70692194 9 2.29307806 9 1.58615611 8.2730944 1.58615611 5.36547198 1.58615611 5.36547198 1.22164948"></polygon>
                </g>
                <rect id="矩形备份-6" fill-opacity="0.2" fill="#0FC6C2" x="857" y="110" width="65" height="30" rx="4"></rect>
                <rect id="矩形备份-7" fill-opacity="0.2" fill="#0FC6C2" x="857" y="146" width="65" height="30" rx="4"></rect>
                <g id="矩形备份-8">
                    <use fill="black" fill-opacity="1" filter="url(#filter-30)" xlink:href="#path-29"></use>
                    <use fill="#FFFFFF" fill-rule="evenodd" xlink:href="#path-29"></use>
                </g>
                <path d="M910,140 L910,129.5 C910,126.738576 907.761424,124.5 905,124.5 L873.5,124.5 L873.5,124.5" id="路径-106备份" stroke-opacity="0.2" stroke="#0FC6C2" stroke-width="4"></path>
                <circle id="椭圆形备份-2881" fill="#0FC6C2" cx="874" cy="125" r="5"></circle>
                <circle id="椭圆形备份-2882" fill="#FF5A5E" cx="875" cy="161" r="5"></circle>
                <line x1="873.998993" y1="161" x2="905.009012" y2="161" id="路径-107备份" stroke-opacity="0.2" stroke="#FF5A5E" stroke-width="4" transform="translate(889.504002, 161.000000) scale(1, -1) translate(-889.504002, -161.000000) "></line>
                <polygon id="路径-108备份" fill="#E54C21" points="892 135.201382 928 135.201382 924 169.786224 910 173.536447 896 169.786224"></polygon>
                <polygon id="路径-109备份" fill="#FFFFFF" points="899.224033 142.230747 920.05723 142.230747 920.05723 146.637484 903.97813 146.637484 903.97813 151 918.570092 151 918.570092 162.846844 909.640631 166.529913 900.697501 162.846844 900.697501 157.314804 903.97813 157.314804 903.97813 160.530302 909.640631 162.302485 914.647409 160.530302 914.647409 154.38033 900.038963 154.38033"></polygon>
                <g id="形状备份" fill-rule="nonzero">
                    <use fill="black" fill-opacity="1" filter="url(#filter-32)" xlink:href="#path-31"></use>
                    <use fill="#FFFFFF" xlink:href="#path-31"></use>
                </g>
                <g id="蒙版备份">
                    <use fill="black" fill-opacity="1" filter="url(#filter-34)" xlink:href="#path-33"></use>
                    <use fill="#428FF9" fill-rule="evenodd" xlink:href="#path-33"></use>
                </g>
            </g>
        </g>
    </g>
</svg>