<?xml version="1.0" encoding="UTF-8"?>
<svg width="136px" height="27px" viewBox="0 0 136 27" version="1.1" xmlns="http://www.w3.org/2000/svg" xmlns:xlink="http://www.w3.org/1999/xlink">
    <title>雷池logo</title>
    <defs>
        <linearGradient x1="50%" y1="0%" x2="50%" y2="100%" id="linearGradient-1">
            <stop stop-color="#4B4B4B" offset="0%"></stop>
            <stop stop-color="#000000" offset="100%"></stop>
        </linearGradient>
        <linearGradient x1="50%" y1="0%" x2="50%" y2="100%" id="linearGradient-2">
            <stop stop-color="#0FC6C2" stop-opacity="0.9" offset="0%"></stop>
            <stop stop-color="#0FC6C2" stop-opacity="0.7" offset="99.9426355%"></stop>
        </linearGradient>
        <path d="M8.88754318,4.01112904 C8.88754318,4.01112904 6.5524834,3.73320873 6.20232117,2.16141495 C5.85409353,3.73320873 3.51709915,4.01112904 3.51709915,4.01112904 C1.14721661,4.30448938 0,2.94422384 0,2.94422384 C1.12593603,5.31426652 3.10116058,5.23089042 3.10116058,5.23089042 L9.30348175,5.23089042 C9.30348175,5.23089042 11.2767717,5.31426652 12.4046423,2.94422384 C12.4046423,2.94422384 11.2574257,4.30603338 8.88754318,4.01112904 Z" id="path-3"></path>
        <filter x="-24.2%" y="-97.7%" width="148.4%" height="295.5%" filterUnits="objectBoundingBox" id="filter-4">
            <feOffset dx="0" dy="0" in="SourceAlpha" result="shadowOffsetOuter1"></feOffset>
            <feGaussianBlur stdDeviation="1" in="shadowOffsetOuter1" result="shadowBlurOuter1"></feGaussianBlur>
            <feColorMatrix values="0 0 0 0 0.0346592498   0 0 0 0 0.410127944   0 0 0 0 0.401920978  0 0 0 1 0" type="matrix" in="shadowBlurOuter1"></feColorMatrix>
        </filter>
    </defs>
    <g id="官网设计" stroke="none" stroke-width="1" fill="none" fill-rule="evenodd">
        <g id="白色版本3" transform="translate(-360.000000, -17.000000)">
            <g id="雷池logo" transform="translate(360.000000, 17.000000)">
                <text id="雷池-SafeLine" font-family="AlimamaShuHeiTi-Bold, Alimama ShuHeiTi" font-size="16" font-weight="bold" line-spacing="22" fill="#000000">
                    <tspan x="32" y="17">雷池 SafeLine</tspan>
                </text>
                <g id="编组-11备份">
                    <path d="M23.6147208,4.7680344 C23.4951046,4.1965348 23.0166399,3.77123278 22.4318496,3.74465141 C17.939597,3.62503521 14.2447856,1.33903684 12.7562286,0.249200404 C12.3043452,-0.0830668014 11.7062642,-0.0830668014 11.2543808,0.249200404 C9.72595165,1.33903684 6.07101239,3.62503521 1.57875978,3.74465141 C1.00726018,3.77123278 0.502214031,4.1965348 0.395888525,4.7680344 C-0.321808639,8.35652022 -1.55784264,20.5174999 12.0252407,26.1660424 C25.568452,20.5042092 24.3058366,8.35652022 23.6147208,4.7680344 Z" id="路径" fill="url(#linearGradient-1)" fill-rule="nonzero"></path>
                    <path d="M12.0331491,21.1105046 C16.6004123,21.1105046 20.3029107,17.4080062 20.3029107,12.840743 C20.3029107,10.6016892 19.4130708,8.57046866 17.9677378,7.08142806 C16.9514565,7.76069126 15.0063158,8.56244798 14.1784625,8.14488231 C13.4331034,7.76892633 12.7177135,7.14321371 12.0322928,6.26774443 C11.4716912,7.14990422 10.8759144,7.71669881 10.2449624,7.9681282 C9.74680389,8.16664045 7.93535795,8.3114088 6.09264561,7.08752799 C4.65080013,8.57601362 3.76338758,10.6047452 3.76338758,12.840743 C3.76338758,17.4080062 7.46588595,21.1105046 12.0331491,21.1105046 Z" id="椭圆形备份-31" fill="url(#linearGradient-2)"></path>
                    <g id="编组-5备份-5" transform="translate(7.411404, 8.245673)" fill="#FFFFFF">
                        <polygon id="路径-130备份-29" transform="translate(4.620888, 7.746521) rotate(-180.000000) translate(-4.620888, -7.746521) " points="4.57624305 5.2452931 -6.1154381e-18 7.84261233 4.08710382 10.2477497 5.55638115 9.47022599 2.77354581 7.84261233 4.57624305 6.82823137 7.82559372 8.67167773 7.82559372 9.27796098 9.24177693 10.1300988 9.24177693 7.84261233"></polygon>
                        <polygon id="路径-130备份-30" transform="translate(4.620888, 2.501228) rotate(-360.000000) translate(-4.620888, -2.501228) " points="4.57624305 0 -6.1154381e-18 2.59731923 4.08710382 5.00245661 5.55638115 4.2249329 2.77354581 2.59731923 4.57624305 1.58293827 7.82559372 3.42638463 7.82559372 4.03266789 9.24177693 4.88480565 9.24177693 2.59731923"></polygon>
                    </g>
                    <g id="长亭logo备份-20" transform="translate(5.830828, 3.652119)" fill-rule="nonzero">
                        <g id="编组-7">
                            <path d="M7.8145424,1.45416841 C7.8145424,1.45416841 6.41118893,1.23534478 6.20157787,0 C5.99196681,1.23534478 4.58861333,1.45416841 4.58861333,1.45416841 C3.16444741,1.68540757 2.4746635,0.614568508 2.4746635,0.614568508 C3.15255458,2.47844926 4.33886398,2.41171581 4.33886398,2.41171581 L8.06577835,2.41171581 C8.06577835,2.41171581 9.25208775,2.47689732 9.92997884,0.614568508 C9.92997884,0.614568508 9.24019493,1.68540757 7.81602901,1.45416841 L7.8145424,1.45416841 Z" id="路径" fill="#0FC6C2"></path>
                            <g id="路径">
                                <use fill="black" fill-opacity="1" filter="url(#filter-4)" xlink:href="#path-3"></use>
                                <use fill="#0FC6C2" xlink:href="#path-3"></use>
                            </g>
                        </g>
                    </g>
                </g>
            </g>
        </g>
    </g>
</svg>