<?xml version="1.0" encoding="UTF-8"?>
<svg width="14px" height="14px" viewBox="0 0 14 14" version="1.1" xmlns="http://www.w3.org/2000/svg" xmlns:xlink="http://www.w3.org/1999/xlink">
    <title>discord</title>
    <g id="官网设计" stroke="none" stroke-width="1" fill="none" fill-rule="evenodd">
        <g id="官网英文版" transform="translate(-1464.000000, -4443.000000)" fill-rule="nonzero">
            <g id="discord" transform="translate(1464.000000, 4443.000000)">
                <path d="M2.8,0 C1.2536027,0 0,1.2536027 0,2.8 L0,11.2 C0,12.7463973 1.2536027,14 2.8,14 L11.2,14 C11.9426062,14 12.6547971,13.7050008 13.179899,13.179899 C13.7050008,12.6547971 14,11.9426062 14,11.2 L14,2.8 C14,1.2536027 12.7463973,0 11.2,0 L2.8,0 Z" id="路径" fill="#FFFFFF"></path>
                <path d="M5.88,3.928 L5.955,4.018 C4.61499999,4.397 4.005,4.985 4.005,4.985 C4.005,4.985 4.16800001,4.895 4.443,4.77700001 C5.23999999,4.427 5.873,4.33700001 6.133,4.307 L6.14999999,4.305 C6.188,4.298 6.221,4.293 6.26,4.293 C6.75893557,4.22795855 7.26386644,4.22292267 7.764,4.278 C8.54929044,4.36841425 9.30999521,4.60840455 10.005,4.985 C10.005,4.985 9.417,4.427 8.15100001,4.047 L8.255,3.927 L8.282,3.928 C8.45,3.93100001 9.37700001,3.981 10.34,4.702 C10.34,4.702 11.412,6.63099999 11.412,9.00599999 L11.407,9.01299999 C11.344,9.10799999 10.7,10.073 9.141,10.123 C9.141,10.123 8.87299999,9.80300001 8.651,9.527 C9.625,9.25099999 9.998,8.64800001 9.998,8.64800001 C9.72988915,8.826599 9.44238463,8.97420925 9.141,9.088 C8.19124454,9.48709561 7.14457538,9.59600766 6.133,9.401 C5.75850712,9.33136488 5.39198761,9.22415625 5.039,9.081 C4.85239064,9.00888276 4.67096251,8.92401582 4.496,8.827 L4.479,8.81699999 L4.46200001,8.808 C4.45029801,8.80272385 4.43894194,8.79671181 4.42799999,8.79 L4.41399999,8.78199999 C4.408,8.778 4.40399999,8.77499999 4.39900001,8.77499999 C4.265,8.7 4.19000001,8.64799999 4.18999999,8.64800001 C4.18999998,8.64800002 4.548,9.23600001 5.493,9.519 C5.27,9.802 4.99399999,10.129 4.99400001,10.129 C3.57400001,10.085 2.913,9.27899999 2.759,9.06 L2.72699999,9.01200001 L2.723,9.00599999 C2.723,6.63099999 3.796,4.702 3.796,4.702 C4.766,3.982 5.68700001,3.932 5.854,3.928 L5.88,3.928 L5.88,3.928 Z M8.39699999,6.67499999 C7.973,6.67499999 7.637,7.04 7.637,7.495 C7.637,7.94799999 7.98,8.31299999 8.39699999,8.31299999 C8.82199999,8.31299999 9.157,7.94799999 9.157,7.49399999 C9.157,7.04 8.814,6.67499999 8.39699999,6.67499999 Z M5.68000001,6.67499999 C5.25500001,6.67499999 4.92,7.04 4.92,7.495 C4.92,7.94799999 5.263,8.31299999 5.68000001,8.31299999 C6.104,8.31299999 6.43900001,7.94799999 6.439,7.49399999 C6.446,7.04 6.104,6.67499999 5.679,6.67499999 L5.68000001,6.67499999 Z" id="形状" fill="#000000"></path>
            </g>
        </g>
    </g>
</svg>