<?xml version="1.0" encoding="UTF-8"?>
<svg width="960px" height="311px" viewBox="0 0 960 311" version="1.1" xmlns="http://www.w3.org/2000/svg" xmlns:xlink="http://www.w3.org/1999/xlink">
    <title>配置防护站点（2）</title>
    <defs>
        <rect id="path-1" x="0" y="1" width="230" height="230" rx="12"></rect>
        <filter x="-30.4%" y="-21.7%" width="160.9%" height="160.9%" filterUnits="objectBoundingBox" id="filter-2">
            <feOffset dx="0" dy="20" in="SourceAlpha" result="shadowOffsetOuter1"></feOffset>
            <feGaussianBlur stdDeviation="20" in="shadowOffsetOuter1" result="shadowBlurOuter1"></feGaussianBlur>
            <feColorMatrix values="0 0 0 0 0.568627451   0 0 0 0 0.619607843   0 0 0 0 0.670588235  0 0 0 0.2 0" type="matrix" in="shadowBlurOuter1"></feColorMatrix>
        </filter>
        <rect id="path-3" x="325" y="0" width="230" height="230" rx="12"></rect>
        <filter x="-30.4%" y="-21.7%" width="160.9%" height="160.9%" filterUnits="objectBoundingBox" id="filter-4">
            <feOffset dx="0" dy="20" in="SourceAlpha" result="shadowOffsetOuter1"></feOffset>
            <feGaussianBlur stdDeviation="20" in="shadowOffsetOuter1" result="shadowBlurOuter1"></feGaussianBlur>
            <feColorMatrix values="0 0 0 0 0.568627451   0 0 0 0 0.619607843   0 0 0 0 0.670588235  0 0 0 0.2 0" type="matrix" in="shadowBlurOuter1"></feColorMatrix>
        </filter>
        <rect id="path-5" x="650" y="1" width="230" height="230" rx="12"></rect>
        <filter x="-30.4%" y="-21.7%" width="160.9%" height="160.9%" filterUnits="objectBoundingBox" id="filter-6">
            <feOffset dx="0" dy="20" in="SourceAlpha" result="shadowOffsetOuter1"></feOffset>
            <feGaussianBlur stdDeviation="20" in="shadowOffsetOuter1" result="shadowBlurOuter1"></feGaussianBlur>
            <feColorMatrix values="0 0 0 0 0.568627451   0 0 0 0 0.619607843   0 0 0 0 0.670588235  0 0 0 0.2 0" type="matrix" in="shadowBlurOuter1"></feColorMatrix>
        </filter>
        <path d="M475.597922,82.0874393 C475.372627,80.7217211 474.696742,79.3560028 473.344973,78.6731437 C463.431998,72.982651 442.704869,62.9673838 441.803689,62.5121443 C440.677215,61.8292852 439.100151,61.8292852 437.973676,62.5121443 C437.072497,62.9673838 416.570663,72.9826509 406.657688,78.6731437 C405.305918,79.3560028 404.630034,80.7217211 404.404739,82.0874393 C399.673546,128.29424 437.973676,143.544761 438.424266,143.77238 C438.874856,144 439.550741,144 440.00133,144 C440.45192,144 441.127805,144 441.578394,143.77238 C442.028984,143.544761 451.491369,139.902845 460.503165,130.342817 C468.61378,121.693269 478.076165,106.215128 475.597922,82.0874393 Z" id="path-7"></path>
        <filter x="-23.6%" y="-15.9%" width="147.2%" height="141.5%" filterUnits="objectBoundingBox" id="filter-8">
            <feOffset dx="0" dy="4" in="SourceAlpha" result="shadowOffsetOuter1"></feOffset>
            <feGaussianBlur stdDeviation="5" in="shadowOffsetOuter1" result="shadowBlurOuter1"></feGaussianBlur>
            <feColorMatrix values="0 0 0 0 0.568627451   0 0 0 0 0.619607843   0 0 0 0 0.670588235  0 0 0 0.301054414 0" type="matrix" in="shadowBlurOuter1"></feColorMatrix>
        </filter>
        <polygon id="path-9" points="436.59509 83.9024931 448.935675 82.7582665 444.103842 97.8149835 450.625755 97.2102678 434.046652 124 435.904704 104.473403 430.51014 104.973591"></polygon>
        <filter x="-34.8%" y="-12.1%" width="169.6%" height="133.9%" filterUnits="objectBoundingBox" id="filter-10">
            <feOffset dx="0" dy="2" in="SourceAlpha" result="shadowOffsetOuter1"></feOffset>
            <feGaussianBlur stdDeviation="2" in="shadowOffsetOuter1" result="shadowBlurOuter1"></feGaussianBlur>
            <feColorMatrix values="0 0 0 0 0.258823529   0 0 0 0 0.560784314   0 0 0 0 0.976470588  0 0 0 0.3 0" type="matrix" in="shadowBlurOuter1"></feColorMatrix>
        </filter>
        <circle id="path-11" cx="366" cy="103" r="11"></circle>
        <filter x="-31.8%" y="-22.7%" width="163.6%" height="163.6%" filterUnits="objectBoundingBox" id="filter-12">
            <feOffset dx="0" dy="2" in="SourceAlpha" result="shadowOffsetOuter1"></feOffset>
            <feGaussianBlur stdDeviation="2" in="shadowOffsetOuter1" result="shadowBlurOuter1"></feGaussianBlur>
            <feColorMatrix values="0 0 0 0 0.0588235294   0 0 0 0 0.776470588   0 0 0 0 0.760784314  0 0 0 0.3 0" type="matrix" in="shadowBlurOuter1"></feColorMatrix>
        </filter>
        <circle id="path-13" cx="514" cy="103" r="11"></circle>
        <filter x="-31.8%" y="-22.7%" width="163.6%" height="163.6%" filterUnits="objectBoundingBox" id="filter-14">
            <feOffset dx="0" dy="2" in="SourceAlpha" result="shadowOffsetOuter1"></feOffset>
            <feGaussianBlur stdDeviation="2" in="shadowOffsetOuter1" result="shadowBlurOuter1"></feGaussianBlur>
            <feColorMatrix values="0 0 0 0 0.258823529   0 0 0 0 0.560784314   0 0 0 0 0.976470588  0 0 0 0.3 0" type="matrix" in="shadowBlurOuter1"></feColorMatrix>
        </filter>
        <rect id="path-15" x="80" y="66" width="70" height="70" rx="12"></rect>
        <filter x="-26.4%" y="-16.4%" width="152.9%" height="152.9%" filterUnits="objectBoundingBox" id="filter-16">
            <feOffset dx="0" dy="7" in="SourceAlpha" result="shadowOffsetOuter1"></feOffset>
            <feGaussianBlur stdDeviation="5" in="shadowOffsetOuter1" result="shadowBlurOuter1"></feGaussianBlur>
            <feColorMatrix values="0 0 0 0 0.568627451   0 0 0 0 0.619607843   0 0 0 0 0.670588235  0 0 0 0.3 0" type="matrix" in="shadowBlurOuter1"></feColorMatrix>
        </filter>
        <path d="M130.683871,86 C131.341935,86 132,86.7099237 132,87.4198473 L132,111.793893 C132,112.503817 131.341935,113.21374 130.683871,113.21374 L116.206452,113.21374 L116.206452,115.10687 L123.445161,115.10687 C123.883871,115.10687 124.322581,115.580153 124.322581,116.053435 C124.322581,116.526718 123.883871,117 123.445161,117 L106.335484,117 C105.896774,117 105.458065,116.526718 105.458065,116.053435 C105.458065,115.580153 105.896774,115.10687 106.335484,115.10687 L113.574194,115.10687 L113.574194,113.21374 L99.316129,113.21374 C98.6580645,113.21374 98,112.503817 98,111.793893 L98,87.4198473 C98,86.4732824 98.4387097,86 99.316129,86 L130.683871,86 Z M127,90 L103,90 C102.447715,90 102,90.4477153 102,91 L102,91 L102,108 C102,108.552285 102.447715,109 103,109 L103,109 L127,109 C127.552285,109 128,108.552285 128,108 L128,108 L128,91 C128,90.4477153 127.552285,90 127,90 L127,90 Z" id="path-17"></path>
        <filter x="-20.6%" y="-16.1%" width="141.2%" height="145.2%" filterUnits="objectBoundingBox" id="filter-18">
            <feOffset dx="0" dy="2" in="SourceAlpha" result="shadowOffsetOuter1"></feOffset>
            <feGaussianBlur stdDeviation="2" in="shadowOffsetOuter1" result="shadowBlurOuter1"></feGaussianBlur>
            <feColorMatrix values="0 0 0 0 0.0588235294   0 0 0 0 0.776470588   0 0 0 0 0.760784314  0 0 0 0.3 0" type="matrix" in="shadowBlurOuter1"></feColorMatrix>
        </filter>
        <rect id="path-19" x="134" y="120" width="24" height="24" rx="4"></rect>
        <filter x="-77.1%" y="-47.9%" width="254.2%" height="254.2%" filterUnits="objectBoundingBox" id="filter-20">
            <feOffset dx="0" dy="7" in="SourceAlpha" result="shadowOffsetOuter1"></feOffset>
            <feGaussianBlur stdDeviation="5" in="shadowOffsetOuter1" result="shadowBlurOuter1"></feGaussianBlur>
            <feColorMatrix values="0 0 0 0 1   0 0 0 0 0.352941176   0 0 0 0 0.368627451  0 0 0 0.3 0" type="matrix" in="shadowBlurOuter1"></feColorMatrix>
        </filter>
        <rect id="path-21" x="739" y="74" width="70" height="70" rx="12"></rect>
        <filter x="-26.4%" y="-16.4%" width="152.9%" height="152.9%" filterUnits="objectBoundingBox" id="filter-22">
            <feOffset dx="0" dy="7" in="SourceAlpha" result="shadowOffsetOuter1"></feOffset>
            <feGaussianBlur stdDeviation="5" in="shadowOffsetOuter1" result="shadowBlurOuter1"></feGaussianBlur>
            <feColorMatrix values="0 0 0 0 0.568627451   0 0 0 0 0.619607843   0 0 0 0 0.670588235  0 0 0 0.3 0" type="matrix" in="shadowBlurOuter1"></feColorMatrix>
        </filter>
    </defs>
    <g id="官网设计" stroke="none" stroke-width="1" fill="none" fill-rule="evenodd">
        <g id="客户端-雷池-服务器" transform="translate(-67.000000, -56.000000)">
            <g id="配置防护站点（2）" transform="translate(107.000000, 76.000000)">
                <g id="矩形">
                    <use fill="black" fill-opacity="1" filter="url(#filter-2)" xlink:href="#path-1"></use>
                    <use fill="#FFFFFF" fill-rule="evenodd" xlink:href="#path-1"></use>
                </g>
                <g id="矩形备份">
                    <use fill="black" fill-opacity="1" filter="url(#filter-4)" xlink:href="#path-3"></use>
                    <use fill="#FFFFFF" fill-rule="evenodd" xlink:href="#path-3"></use>
                </g>
                <circle id="椭圆形" stroke="#0FC6C2" stroke-width="3" cx="230" cy="116" r="6.5"></circle>
                <circle id="椭圆形备份-2880" stroke="#0FC6C2" stroke-width="3" cx="555" cy="116" r="6.5"></circle>
                <path id="路径-104" d="M309,109 L323,116 L309,123 L309,117 L238,117 L238,115 L309,115 L309,109 Z" fill="#0FC6C2" fill-rule="nonzero"></path>
                <path id="路径-104备份" d="M634,109 L648,116 L634,123 L634,117 L563,117 L563,115 L634,115 L634,109 Z" fill="#0FC6C2" fill-rule="nonzero"></path>
                <g id="矩形备份-6">
                    <use fill="black" fill-opacity="1" filter="url(#filter-6)" xlink:href="#path-5"></use>
                    <use fill="#FFFFFF" fill-rule="evenodd" xlink:href="#path-5"></use>
                </g>
                <g id="形状" fill-rule="nonzero">
                    <use fill="black" fill-opacity="1" filter="url(#filter-8)" xlink:href="#path-7"></use>
                    <use fill="#FFFFFF" xlink:href="#path-7"></use>
                </g>
                <g id="蒙版">
                    <use fill="black" fill-opacity="1" filter="url(#filter-10)" xlink:href="#path-9"></use>
                    <use fill="#428FF9" fill-rule="evenodd" xlink:href="#path-9"></use>
                </g>
                <g id="椭圆形备份-2884">
                    <use fill="black" fill-opacity="1" filter="url(#filter-12)" xlink:href="#path-11"></use>
                    <use fill="#0FC6C2" fill-rule="evenodd" xlink:href="#path-11"></use>
                </g>
                <g id="椭圆形备份-2885">
                    <use fill="black" fill-opacity="1" filter="url(#filter-14)" xlink:href="#path-13"></use>
                    <use fill="#428FF9" fill-rule="evenodd" xlink:href="#path-13"></use>
                </g>
                <text id="客户端备份" font-family="PingFangSC-Semibold, PingFang SC" font-size="20" font-weight="500" line-spacing="28" fill="#000000">
                    <tspan x="85" y="208">客户端</tspan>
                </text>
                <g id="矩形备份-67">
                    <use fill="black" fill-opacity="1" filter="url(#filter-16)" xlink:href="#path-15"></use>
                    <use fill="#FFFFFF" fill-rule="evenodd" xlink:href="#path-15"></use>
                </g>
                <g id="形状结合备份-5" fill-rule="nonzero">
                    <use fill="black" fill-opacity="1" filter="url(#filter-18)" xlink:href="#path-17"></use>
                    <use fill="#0FC6C2" xlink:href="#path-17"></use>
                </g>
                <g id="矩形备份-69">
                    <use fill="black" fill-opacity="1" filter="url(#filter-20)" xlink:href="#path-19"></use>
                    <use fill="#FF5A5E" fill-rule="evenodd" xlink:href="#path-19"></use>
                </g>
                <circle id="椭圆形备份-2894" fill="#FFFFFF" cx="140.5" cy="126.5" r="2.5"></circle>
                <circle id="椭圆形备份-2895" fill="#FFFFFF" cx="151.5" cy="137.5" r="2.5"></circle>
                <path d="M140.5,126.5 C142.941757,126.133563 144.77509,126.60662 146,127.919172 C147.837365,129.888 145.588463,134.519891 146.966024,136.266298 C147.884398,137.430569 149.395723,137.841803 151.5,137.5" id="路径-82备份" stroke="#FFFFFF"></path>
                <line x1="385" y1="103" x2="396" y2="103" id="路径-105" stroke="#919EAB" stroke-width="0.5" stroke-linecap="round"></line>
                <line x1="484" y1="103" x2="495" y2="103" id="路径-105备份" stroke="#919EAB" stroke-width="0.5" stroke-linecap="round"></line>
                <text id="雷池" font-family="PingFangSC-Semibold, PingFang SC" font-size="20" font-weight="500" line-spacing="28" fill="#000000">
                    <tspan x="420" y="181">雷池</tspan>
                </text>
                <text id="网站服务器" font-family="PingFangSC-Semibold, PingFang SC" font-size="20" font-weight="500" line-spacing="28" fill="#000000">
                    <tspan x="715" y="181">网站服务器</tspan>
                </text>
                <text id="http(s)://example.co备份" font-family="PingFangSC-Regular, PingFang SC" font-size="14" font-weight="normal" line-spacing="22" fill="#000000" fill-opacity="0.5">
                    <tspan x="367.249" y="207">http(s)://example.com</tspan>
                </text>
                <text id="http(s)://192.168.10" font-family="PingFangSC-Regular, PingFang SC" font-size="14" font-weight="normal" line-spacing="22" fill="#000000" fill-opacity="0.5">
                    <tspan x="674.357" y="207">http(s)://192.168.10.10(内网)</tspan>
                </text>
                <text id="在单独设备上部署雷池" font-family="PingFangSC-Semibold, PingFang SC" font-size="16" font-weight="500" line-spacing="24" fill="#000000">
                    <tspan x="360" y="276">在单独设备上部署雷池</tspan>
                </text>
                <text id="请求方向" font-family="PingFangSC-Semibold, PingFang SC" font-size="16" font-weight="500" line-spacing="24" fill="#000000">
                    <tspan x="571" y="149">请求方向</tspan>
                </text>
                <rect id="矩形备份-6" fill-opacity="0.2" fill="#0FC6C2" x="721" y="66" width="65" height="30" rx="4"></rect>
                <rect id="矩形备份-7" fill-opacity="0.2" fill="#0FC6C2" x="721" y="102" width="65" height="30" rx="4"></rect>
                <g id="矩形备份-8">
                    <use fill="black" fill-opacity="1" filter="url(#filter-22)" xlink:href="#path-21"></use>
                    <use fill="#FFFFFF" fill-rule="evenodd" xlink:href="#path-21"></use>
                </g>
                <path d="M774,96 L774,85.5 C774,82.7385763 771.761424,80.5 769,80.5 L737.5,80.5 L737.5,80.5" id="路径-106备份" stroke-opacity="0.2" stroke="#0FC6C2" stroke-width="4"></path>
                <circle id="椭圆形备份-2881" fill="#0FC6C2" cx="738" cy="81" r="5"></circle>
                <circle id="椭圆形备份-2882" fill="#FF5A5E" cx="739" cy="117" r="5"></circle>
                <line x1="737.998993" y1="117" x2="769.009012" y2="117" id="路径-107备份" stroke-opacity="0.2" stroke="#FF5A5E" stroke-width="4" transform="translate(753.504002, 117.000000) scale(1, -1) translate(-753.504002, -117.000000) "></line>
                <polygon id="路径-108备份" fill="#E54C21" points="756 91.2013824 792 91.2013824 788 125.786224 774 129.536447 760 125.786224"></polygon>
                <polygon id="路径-109备份" fill="#FFFFFF" points="763.224033 98.2307472 784.05723 98.2307472 784.05723 102.637484 767.97813 102.637484 767.97813 107 782.570092 107 782.570092 118.846844 773.640631 122.529913 764.697501 118.846844 764.697501 113.314804 767.97813 113.314804 767.97813 116.530302 773.640631 118.302485 778.647409 116.530302 778.647409 110.38033 764.038963 110.38033"></polygon>
            </g>
        </g>
    </g>
</svg>