<?xml version="1.0" encoding="UTF-8"?>
<svg width="606px" height="429px" viewBox="0 0 606 429" version="1.1" xmlns="http://www.w3.org/2000/svg" xmlns:xlink="http://www.w3.org/1999/xlink">
    <title>语义分析</title>
    <defs>
        <rect id="path-1" x="74" y="53" width="432" height="293" rx="12"></rect>
        <filter x="-16.2%" y="-17.1%" width="132.4%" height="147.8%" filterUnits="objectBoundingBox" id="filter-2">
            <feOffset dx="0" dy="20" in="SourceAlpha" result="shadowOffsetOuter1"></feOffset>
            <feGaussianBlur stdDeviation="20" in="shadowOffsetOuter1" result="shadowBlurOuter1"></feGaussianBlur>
            <feColorMatrix values="0 0 0 0 0.568627451   0 0 0 0 0.619607843   0 0 0 0 0.670588235  0 0 0 0.2 0" type="matrix" in="shadowBlurOuter1"></feColorMatrix>
        </filter>
        <rect id="path-3" x="17" y="174" width="159" height="51" rx="25.5"></rect>
        <filter x="-44.0%" y="-98.0%" width="188.1%" height="374.5%" filterUnits="objectBoundingBox" id="filter-4">
            <feOffset dx="0" dy="20" in="SourceAlpha" result="shadowOffsetOuter1"></feOffset>
            <feGaussianBlur stdDeviation="20" in="shadowOffsetOuter1" result="shadowBlurOuter1"></feGaussianBlur>
            <feColorMatrix values="0 0 0 0 1   0 0 0 0 0.352941176   0 0 0 0 0.368627451  0 0 0 0.2 0" type="matrix" in="shadowBlurOuter1"></feColorMatrix>
        </filter>
        <rect id="path-5" x="175" y="56" width="40" height="40" rx="12"></rect>
        <filter x="-175.0%" y="-125.0%" width="450.0%" height="450.0%" filterUnits="objectBoundingBox" id="filter-6">
            <feOffset dx="0" dy="20" in="SourceAlpha" result="shadowOffsetOuter1"></feOffset>
            <feGaussianBlur stdDeviation="20" in="shadowOffsetOuter1" result="shadowBlurOuter1"></feGaussianBlur>
            <feComposite in="shadowBlurOuter1" in2="SourceAlpha" operator="out" result="shadowBlurOuter1"></feComposite>
            <feColorMatrix values="0 0 0 0 0.568627451   0 0 0 0 0.619607843   0 0 0 0 0.670588235  0 0 0 0.2 0" type="matrix" in="shadowBlurOuter1"></feColorMatrix>
        </filter>
        <rect id="path-7" x="329" y="255" width="214" height="114" rx="12"></rect>
        <filter x="-32.7%" y="-43.9%" width="165.4%" height="222.8%" filterUnits="objectBoundingBox" id="filter-8">
            <feOffset dx="0" dy="20" in="SourceAlpha" result="shadowOffsetOuter1"></feOffset>
            <feGaussianBlur stdDeviation="20" in="shadowOffsetOuter1" result="shadowBlurOuter1"></feGaussianBlur>
            <feColorMatrix values="0 0 0 0 0.568627451   0 0 0 0 0.619607843   0 0 0 0 0.670588235  0 0 0 0.2 0" type="matrix" in="shadowBlurOuter1"></feColorMatrix>
        </filter>
    </defs>
    <g id="官网设计" stroke="none" stroke-width="1" fill="none" fill-rule="evenodd">
        <g id="白色版本3" transform="translate(-977.000000, -1250.000000)">
            <g id="语义分析" transform="translate(1000.000000, 1250.000000)">
                <rect id="矩形" fill-opacity="0" fill="#D8D8D8" x="0" y="0" width="560" height="400"></rect>
                <g id="矩形">
                    <use fill="black" fill-opacity="1" filter="url(#filter-2)" xlink:href="#path-1"></use>
                    <use fill="#FFFFFF" fill-rule="evenodd" xlink:href="#path-1"></use>
                </g>
                <rect id="矩形备份-39" fill="#F7F8FA" x="98" y="174" width="176" height="148" rx="3.5"></rect>
                <rect id="矩形备份-40" fill="#F7F8FA" x="306" y="174" width="176" height="148" rx="3.5"></rect>
                <path d="M86,53 L494,53 C500.627417,53 506,58.372583 506,65 L506,81 L506,81 L74,81 L74,65 C74,58.372583 79.372583,53 86,53 Z" id="矩形" fill="#111227"></path>
                <g id="矩形">
                    <use fill="black" fill-opacity="1" filter="url(#filter-4)" xlink:href="#path-3"></use>
                    <use fill="#FF5A5E" fill-rule="evenodd" xlink:href="#path-3"></use>
                </g>
                <g id="矩形备份">
                    <use fill="black" fill-opacity="1" filter="url(#filter-6)" xlink:href="#path-5"></use>
                    <use fill-opacity="0.89767264" fill="#FFFFFF" fill-rule="evenodd" xlink:href="#path-5"></use>
                </g>
                <text id="0day-攻击" font-family="PingFangSC-Medium, PingFang SC" font-size="24" font-weight="400" line-spacing="36" fill="#FFFFFF">
                    <tspan x="41" y="206">0day 攻击</tspan>
                </text>
                <circle id="椭圆形" fill-opacity="0.8" fill="#FF7777" cx="93" cy="67" r="3"></circle>
                <circle id="椭圆形备份" fill="#FFC641" cx="103" cy="67" r="3"></circle>
                <g id="矩形">
                    <use fill="black" fill-opacity="1" filter="url(#filter-8)" xlink:href="#path-7"></use>
                    <use fill="#FFFFFF" fill-rule="evenodd" xlink:href="#path-7"></use>
                </g>
                <circle id="椭圆形备份-2" fill-opacity="0.8" fill="#52C41A" cx="113" cy="67" r="3"></circle>
                <rect id="矩形备份-27" fill="#0FC6C2" x="98" y="105" width="26" height="7" rx="3.5"></rect>
                <rect id="矩形备份-28" fill-opacity="0.6" fill="#0FC6C2" x="136" y="105" width="26" height="7" rx="3.5"></rect>
                <rect id="矩形备份-29" fill-opacity="0.2" fill="#0FC6C2" x="174" y="105" width="26" height="7" rx="3.5"></rect>
                <rect id="矩形备份-30" fill="#F7F8FA" x="98" y="128" width="176" height="7" rx="3.5"></rect>
                <rect id="矩形备份-33" fill="#F7F8FA" x="306" y="128" width="176" height="7" rx="3.5"></rect>
                <rect id="矩形备份-32" fill="#F7F8FA" x="98" y="151" width="176" height="7" rx="3.5"></rect>
                <rect id="矩形备份-38" fill="#F7F8FA" x="306" y="151" width="176" height="7" rx="3.5"></rect>
                <text id="多维-Web-应用防护" font-family="PingFangSC-Regular, PingFang SC" font-size="12" font-weight="normal" line-spacing="20" fill="#000000" fill-opacity="0.5">
                    <tspan x="345" y="284">多维 Web 应用防护</tspan>
                </text>
                <text id="SQL-注入" font-family="PingFangSC-Regular, PingFang SC" font-size="10" font-weight="normal" line-spacing="10" fill="#52C41A">
                    <tspan x="361" y="309">SQL 注入</tspan>
                </text>
                <text id="XSS" font-family="PingFangSC-Regular, PingFang SC" font-size="10" font-weight="normal" line-spacing="10" fill="#FFC641">
                    <tspan x="361" y="331">XSS</tspan>
                </text>
                <text id="SSRF" font-family="PingFangSC-Regular, PingFang SC" font-size="10" font-weight="normal" line-spacing="10" fill="#FFC641">
                    <tspan x="454" y="331">SSRF</tspan>
                </text>
                <text id="CSRF" font-family="PingFangSC-Regular, PingFang SC" font-size="10" font-weight="normal" line-spacing="10" fill="#52C41A">
                    <tspan x="454" y="309">CSRF</tspan>
                </text>
                <text id="……" font-family="PingFangSC-Regular, PingFang SC" font-size="10" font-weight="normal" line-spacing="20" fill="#FFC641">
                    <tspan x="360" y="344">……</tspan>
                </text>
                <circle id="椭圆形" stroke="#52C41A" stroke-width="2" cx="349" cy="303" r="3"></circle>
                <circle id="椭圆形备份-2885" stroke="#FFC641" stroke-width="2" cx="349" cy="325" r="3"></circle>
                <circle id="椭圆形备份-2887" stroke="#FFC641" stroke-width="2" cx="349" cy="346" r="3"></circle>
                <circle id="椭圆形备份-2886" stroke="#FFC641" stroke-width="2" cx="442" cy="325" r="3"></circle>
                <circle id="椭圆形备份-2884" stroke="#52C41A" stroke-width="2" cx="442" cy="303" r="3"></circle>
                <g id="算法" transform="translate(183.000000, 65.000000)" fill="#0FC6C2" fill-rule="nonzero">
                    <path d="M20.1156247,7.15710835 C17.9350256,6.41506174 15.0525629,6.00787371 12.0013315,6.00787371 L11.8057741,6.00787371 C12.6121136,4.96311493 13.4425629,4.0603362 14.2515812,3.35043601 C14.9614814,2.72893848 15.6285197,2.28692516 16.1803666,2.07261567 C16.5661237,1.92259902 16.8822302,1.89313147 17.0483201,1.98689187 C17.2278043,2.09136775 17.3644266,2.41551085 17.4206828,2.87895513 C17.5010489,3.53259908 17.4206828,4.4193046 17.1876212,5.44263242 L19.068187,5.86857254 C19.3521471,4.61218314 19.4432286,3.52724134 19.333395,2.64321469 C19.2396346,1.87437939 18.9342436,0.848372695 18.0100339,0.315277835 C17.1233284,-0.196386076 15.5320804,-0.338366115 12.9791186,1.8984892 C11.7575545,2.96735779 10.5065228,4.42198347 9.34121497,6.11234958 C8.55630645,6.17664243 7.79818663,6.26772396 7.07221322,6.38559419 C6.94094866,5.93822312 6.83379391,5.5042464 6.75074899,5.08902176 C6.56590705,4.16213321 6.51768741,3.36383035 6.60876895,2.77983699 C6.6730618,2.37264895 6.80164749,2.08333114 6.96773735,1.98689187 C7.24098195,1.82883862 8.21341127,1.9413511 9.9278872,3.49777379 L11.2244596,2.0699368 C10.3002499,1.23145091 9.42693876,0.639420941 8.62595704,0.309920098 C7.92945119,0.0232811526 6.90880224,-0.207101551 6.00334463,0.315277835 C5.11663911,0.826941746 4.19778717,2.13690851 4.85946772,5.46406337 C4.94251265,5.88732462 5.0496674,6.32398021 5.17825309,6.77670901 C4.72552429,6.89190036 4.29422644,7.01780719 3.8870384,7.15710835 C0.675074899,8.25008676 0,9.6993547 0,10.7226825 C0,11.7754779 0.717936797,12.5469921 1.32336111,13.0077575 C2.01718809,13.5381735 2.97890193,14.0016177 4.18171396,14.3820171 L4.76570732,12.5443132 C2.52349426,11.834413 1.93146429,11.0414679 1.93146429,10.7226825 C1.93146429,10.5324828 2.11630623,10.2726326 2.43777047,10.0154612 C2.89853587,9.64577733 3.61647267,9.2894878 4.50853593,8.98409677 C4.91036623,8.84747447 5.33898521,8.72424651 5.78903514,8.6144129 C6.0488854,9.30288214 6.35159756,10.0074246 6.68913501,10.7200037 C6.21765413,11.7165428 5.81582383,12.7050453 5.49435959,13.650686 C4.93179718,15.3169422 4.63712162,16.8358608 4.64247936,18.0386728 C4.6478371,19.0807527 4.88893528,20.4576912 6.01138124,21.1059774 C6.40517493,21.3336812 6.8177207,21.4167262 7.219551,21.4167262 C7.74728812,21.4167262 8.24823656,21.2693884 8.64738799,21.1059774 C9.45372745,20.7737977 10.3323964,20.1737311 11.2592849,19.3272086 L9.96003362,17.9020505 C8.22948448,19.4799041 7.25169742,19.5950955 6.97577395,19.4343634 C6.78289541,19.3218509 6.57662252,18.8959108 6.57126479,18.0279573 C6.56590705,17.034097 6.82575731,15.7321669 7.32134801,14.2641469 C7.47136465,13.8194547 7.64013338,13.3667259 7.83033305,12.9059605 C7.86247947,12.9595378 7.89194703,13.0131152 7.92409345,13.0693715 C8.94474241,14.8347459 10.1073714,16.4795712 11.2887525,17.8216844 C12.4513815,19.1423667 13.6193682,20.1576579 14.664127,20.7550456 C15.2561569,21.0952619 16.0276711,21.4167262 16.8018641,21.4167262 C17.2090522,21.4167262 17.6189191,21.3283235 18.007355,21.1032985 C19.129801,20.4550123 19.3708992,19.075395 19.3762569,18.0333151 C19.3816146,16.830503 19.0869391,15.3115845 18.5243767,13.6426493 C18.2377377,12.7907691 17.8814482,11.9013847 17.4689024,11.0039637 L15.7142435,11.8156609 C16.1000006,12.6514679 16.4295014,13.4738806 16.6947094,14.2641469 C17.1903001,15.7321669 17.4501504,17.034097 17.4447926,18.0306362 C17.4421137,18.8985896 17.233162,19.3272086 17.0402835,19.4370422 C16.8474049,19.5495547 16.3732452,19.5147294 15.6204831,19.0834316 C14.7578874,18.5905197 13.7586694,17.7145297 12.7353415,16.5492218 C11.6370054,15.300869 10.5493847,13.7658773 9.59302862,12.1076576 C9.32514175,11.6442133 9.0733281,11.1834479 8.83758766,10.7200037 C9.07600697,10.2512016 9.33049949,9.7850785 9.59838636,9.32163422 C9.86359435,8.86086881 10.136839,8.41349775 10.4181202,7.97952103 C10.9378207,7.95273234 11.4655578,7.939338 12.0013315,7.939338 C14.84629,7.939338 17.5090855,8.31170074 19.4941271,8.98677564 C20.3888693,9.2894878 21.1041272,9.64577733 21.5648926,10.0181401 C21.8863568,10.2779903 22.0711988,10.5351617 22.0711988,10.7253614 C22.0711988,10.9316343 21.8595681,11.2102366 21.4898843,11.4915178 C20.9701838,11.8853115 20.169202,12.2576743 19.1753418,12.568423 L19.7512985,14.4088058 C20.9728626,14.0284064 21.9506497,13.5622833 22.6551921,13.0291884 C23.2686531,12.5657441 24,11.7888722 24,10.7253614 C24.0026631,9.6993547 23.3275882,8.25008676 20.1156247,7.15710835 L20.1156247,7.15710835 Z M7.92677232,8.35456264 C7.89194703,8.41349775 7.85980061,8.47243286 7.82497531,8.53136797 C7.78479228,8.4349287 7.74728812,8.33848943 7.70710509,8.24205016 C7.8089021,8.22597694 7.91337798,8.2125826 8.01785386,8.19918826 C7.9883863,8.24740789 7.95891874,8.30098527 7.92677232,8.35456264 L7.92677232,8.35456264 Z" id="形状"></path>
                    <path d="M10.3002499,11.0736143 C10.3002499,12.4051628 11.3796833,13.4845961 12.7112317,13.4845961 C14.0427802,13.4845961 15.1222135,12.4051628 15.1222135,11.0736143 C15.1222135,9.74206584 14.0427802,8.66263253 12.7112317,8.66263253 C11.3796833,8.66263253 10.3002499,9.74206584 10.3002499,11.0736143 Z" id="路径"></path>
                </g>
            </g>
        </g>
    </g>
</svg>