<?xml version="1.0" encoding="UTF-8"?>
<svg width="600px" height="443px" viewBox="0 0 600 443" version="1.1" xmlns="http://www.w3.org/2000/svg" xmlns:xlink="http://www.w3.org/1999/xlink">
    <title>化繁为简</title>
    <defs>
        <rect id="path-1" x="84" y="60" width="432" height="293" rx="12"></rect>
        <filter x="-16.2%" y="-17.1%" width="132.4%" height="147.8%" filterUnits="objectBoundingBox" id="filter-2">
            <feOffset dx="0" dy="20" in="SourceAlpha" result="shadowOffsetOuter1"></feOffset>
            <feGaussianBlur stdDeviation="20" in="shadowOffsetOuter1" result="shadowBlurOuter1"></feGaussianBlur>
            <feColorMatrix values="0 0 0 0 0.568627451   0 0 0 0 0.619607843   0 0 0 0 0.670588235  0 0 0 0.2 0" type="matrix" in="shadowBlurOuter1"></feColorMatrix>
        </filter>
        <circle id="path-3" cx="473" cy="88" r="70"></circle>
        <filter x="-50.0%" y="-35.7%" width="200.0%" height="200.0%" filterUnits="objectBoundingBox" id="filter-4">
            <feOffset dx="0" dy="20" in="SourceAlpha" result="shadowOffsetOuter1"></feOffset>
            <feGaussianBlur stdDeviation="20" in="shadowOffsetOuter1" result="shadowBlurOuter1"></feGaussianBlur>
            <feColorMatrix values="0 0 0 0 0.266666667   0 0 0 0 0.843137255   0 0 0 0 0.71372549  0 0 0 0.5 0" type="matrix" in="shadowBlurOuter1"></feColorMatrix>
        </filter>
        <circle id="path-5" cx="106" cy="331" r="50"></circle>
        <filter x="-70.0%" y="-50.0%" width="240.0%" height="240.0%" filterUnits="objectBoundingBox" id="filter-6">
            <feOffset dx="0" dy="20" in="SourceAlpha" result="shadowOffsetOuter1"></feOffset>
            <feGaussianBlur stdDeviation="20" in="shadowOffsetOuter1" result="shadowBlurOuter1"></feGaussianBlur>
            <feColorMatrix values="0 0 0 0 1   0 0 0 0 0.776470588   0 0 0 0 0.254901961  0 0 0 0.5 0" type="matrix" in="shadowBlurOuter1"></feColorMatrix>
        </filter>
        <circle id="path-7" cx="300.5" cy="213.5" r="67.5"></circle>
        <mask id="mask-8" maskContentUnits="userSpaceOnUse" maskUnits="objectBoundingBox" x="0" y="0" width="135" height="135" fill="white">
            <use xlink:href="#path-7"></use>
        </mask>
        <linearGradient x1="15.9475528%" y1="15.5184638%" x2="60.8557404%" y2="61.8849334%" id="linearGradient-9">
            <stop stop-color="#FFFFFF" offset="0%"></stop>
            <stop stop-color="#FFFFFF" stop-opacity="0" offset="100%"></stop>
        </linearGradient>
    </defs>
    <g id="官网设计" stroke="none" stroke-width="1" fill="none" fill-rule="evenodd">
        <g id="白色版本3" transform="translate(-276.000000, -1920.000000)">
            <g id="化繁为简" transform="translate(276.000000, 1922.000000)">
                <rect id="矩形" fill-opacity="0" fill="#D8D8D8" x="0" y="0" width="600" height="400"></rect>
                <g id="矩形">
                    <use fill="black" fill-opacity="1" filter="url(#filter-2)" xlink:href="#path-1"></use>
                    <use fill="#FFFFFF" fill-rule="evenodd" xlink:href="#path-1"></use>
                </g>
                <path d="M96,60 L504,60 C510.627417,60 516,65.372583 516,72 L516,88 L516,88 L84,88 L84,72 C84,65.372583 89.372583,60 96,60 Z" id="矩形" fill="#111227"></path>
                <circle id="椭圆形" fill-opacity="0.8" fill="#FF7777" cx="103" cy="74" r="3"></circle>
                <circle id="椭圆形备份" fill="#FFC641" cx="113" cy="74" r="3"></circle>
                <circle id="椭圆形备份-2" fill-opacity="0.8" fill="#52C41A" cx="123" cy="74" r="3"></circle>
                <g id="椭圆形">
                    <use fill="black" fill-opacity="1" filter="url(#filter-4)" xlink:href="#path-3"></use>
                    <use fill="#44D7B6" fill-rule="evenodd" xlink:href="#path-3"></use>
                </g>
                <g id="椭圆形备份-21">
                    <use fill="black" fill-opacity="1" filter="url(#filter-6)" xlink:href="#path-5"></use>
                    <use fill="#FFC641" fill-rule="evenodd" xlink:href="#path-5"></use>
                </g>
                <use id="椭圆形" stroke="#0FC6C2" mask="url(#mask-8)" stroke-width="4" stroke-dasharray="5" xlink:href="#path-7"></use>
                <g id="安装-(1)" transform="translate(443.000000, 59.000000)" fill="#FFFFFF" fill-rule="nonzero">
                    <path d="M51.057781,56.1094784 L15.1950051,56.1094784 C12.0502943,56.1094784 9.50111769,53.4949382 9.50111769,50.2703387 L9.50111769,20.9076002 C9.50111769,19.8399963 9.78799085,18.7941802 10.3254241,17.8790911 L13.8260029,11.9600627 C14.8572937,10.217036 16.6983657,9.15306336 18.6883213,9.14943206 L47.4773135,9.10947836 C49.4600065,9.10585639 51.3047098,10.1625664 52.3396319,11.8946992 L55.9128368,17.8681972 C56.461164,18.7869176 56.7516685,19.8436276 56.7516685,20.9184941 L56.7516685,50.2667074 C56.7516685,53.4949382 54.2024918,56.1094784 51.057781,56.1094784 L51.057781,56.1094784 Z" id="路径" fill-opacity="0.300808566"></path>
                    <path d="M58.6857056,11.1076456 L54.4890691,4.26384245 C52.8761269,1.63534413 49.9601366,0 46.8761314,0 L46.8649305,0 L13.0379492,0.0448039487 C9.9427431,0.048537611 7.01928545,1.69508272 5.41381063,4.34598302 L1.29558101,11.1263139 C0.447823588,12.5231354 0,14.1258358 0,15.7597889 L0,49.4150217 C0,54.3397224 4.00621991,58.3459421 8.9309206,58.3459421 L51.0690343,58.3459421 C55.993735,58.3459421 59.9999775,54.3397224 59.9999775,49.4150217 L59.9999775,15.7747236 C60.0036884,14.1281785 59.5481816,12.5115027 58.6857056,11.1076456 Z M9.24081457,6.66832102 C10.0398183,5.34660454 11.4959467,4.52893248 13.0416829,4.52519881 L46.8686641,4.48039487 L46.8761314,4.48039487 C48.4144003,4.48039487 49.866795,5.29433327 50.6695324,6.60484876 L53.9663563,11.9775889 L6.01866393,11.9775889 L9.24081457,6.66832102 Z M51.072768,53.8692809 L8.93465426,53.8692809 C6.47790441,53.8692809 4.48412869,51.8717716 4.48412869,49.4187554 L4.48412869,16.4579838 L55.5232935,16.4579838 L55.5232935,49.4150217 C55.5232935,51.8717716 53.5257842,53.8692809 51.072768,53.8692809 Z" id="形状"></path>
                    <path d="M39.7074997,35.6602095 L32.1916373,42.0858424 L32.2289739,22.8126772 C32.2307595,22.2182979 31.9959451,21.64764 31.5763546,21.2266485 C31.1567641,20.8056571 30.5868921,20.5687461 29.9925101,20.5687461 L29.9887765,20.5687461 C28.7529342,20.5687461 27.7523127,21.5693676 27.748579,22.8052099 L27.7112424,41.7012752 L21.069057,35.9962391 C20.1319078,35.189768 18.7168497,35.2980442 17.9103786,36.2351935 C17.1039076,37.1723427 17.2121838,38.5874008 18.149333,39.3938719 L28.7043966,48.4629378 C29.1225668,48.825103 29.6452795,49.0043188 30.1642586,49.0043188 C30.6832377,49.0043188 31.2022167,48.825103 31.6203869,48.4666715 L42.6160227,39.0653096 C43.5569056,38.2625722 43.6651818,36.8475141 42.8624444,35.9066312 C42.4774336,35.4545076 41.9281951,35.1743566 41.3361557,35.1281145 C40.7441162,35.0818723 40.1580406,35.2733479 39.7074997,35.6602095 L39.7074997,35.6602095 Z" id="路径"></path>
                </g>
                <g id="KHCFDC_点击" transform="translate(84.000000, 308.000000)">
                    <path d="M15.8283717,12.0295625 L45.9022779,24.059125 C47.485115,24.6922598 48.4348173,26.5916644 47.8016825,28.1745016 C47.485115,29.1242039 46.8519802,29.7573388 45.9022779,30.0739062 L33.8727154,34.1892828 L29.7573388,45.9022779 C29.1242039,47.485115 27.5413667,48.4348173 25.6419621,47.8016825 C24.6922598,47.485115 24.059125,46.8519802 23.7425575,45.9022779 L11.712995,16.1449391 C11.0798602,14.5621019 12.0295625,12.6626973 13.6123996,12.0295625 C14.2455345,11.712995 15.1952368,11.712995 15.8283717,12.0295625 Z" id="形状" fill="#FFFFFF" fill-rule="nonzero"></path>
                    <circle id="椭圆形" stroke="url(#linearGradient-9)" stroke-width="4" cx="15.5" cy="15.5" r="13.5"></circle>
                </g>
                <g id="安全盾牌" transform="translate(265.000000, 175.000000)" fill="#0FC6C2" fill-rule="nonzero">
                    <path d="M33.0299631,0.492832555 C34.1251466,-0.164277518 35.6584034,-0.164277518 36.7535869,0.492832555 L36.7535869,0.492832555 L36.8290477,0.530049519 C37.7120774,0.962433222 44.0420345,3.99948035 51.1282254,7.53727687 L51.9184537,7.93231918 C52.1827416,8.06461559 52.4478286,8.19749201 52.7134763,8.33084155 L53.5118632,8.73220263 C54.5779867,9.26895817 55.6492688,9.81157339 56.7104578,10.3532073 L57.5042187,10.7591419 C61.1973806,12.6516469 64.7201915,14.5111808 67.4187235,16.0444376 C68.7329438,16.7015477 69.3900539,18.0157679 69.6090905,19.329988 C72.0184941,42.5478772 62.818953,57.4423721 54.9336322,65.7657664 C47.2277631,73.856929 39.1830214,77.5427484 37.0583424,78.4624694 L36.897171,78.5318678 C36.7003936,78.6161839 36.5767741,78.6678192 36.5345501,78.6889312 C36.0964768,78.9079679 35.4393667,78.9079679 35.0012933,78.9079679 L34.8276041,78.9075401 C34.4023649,78.9045454 33.8513508,78.8805883 33.4680365,78.6889312 C33.0299631,78.4698946 -4.20627438,63.7944363 0.393496125,19.329988 C0.612532884,18.0157679 1.26964296,16.7015477 2.5838631,16.0444376 C5.28239512,14.5111808 8.78803354,12.6516469 12.456467,10.7591418 L13.2448169,10.3532073 C13.5082742,10.2177988 13.7723273,10.082329 14.0367414,9.94690472 L14.8308318,9.54087553 C15.2281836,9.33803617 15.6258193,9.13553981 16.0229464,8.93374722 L16.8162877,8.53120729 C16.9483199,8.46430932 17.080237,8.39751627 17.2120094,8.33084151 L18.0006747,7.93231914 C18.6560588,7.60157812 19.3063612,7.27446215 19.9479131,6.9526414 L20.7133403,6.56910509 C20.8401332,6.50564162 20.9665174,6.44241668 21.0924635,6.37944363 L21.8426484,6.00473493 C27.7983156,3.03295726 32.6094127,0.703107794 33.0299631,0.492832555 Z M47.0483113,27.872419 L32.372853,43.2049873 L24.7065688,36.1958131 C22.9542753,34.6625563 20.1067983,34.6625563 18.5735415,36.4148499 C17.0402847,38.1671435 17.0402847,41.0146204 18.7925782,42.5478772 L29.7444127,52.4045283 C30.6205595,53.0616384 31.715743,53.4997118 32.5918897,53.4997118 C33.6870732,53.4997118 35.0012933,53.0616384 35.6584034,52.1854916 L53.1813387,33.5673729 C54.9336323,31.8150793 54.7145955,28.9676023 52.9623019,27.4343455 C51.4290451,25.9010887 48.5815681,26.1201254 47.0483113,27.872419 Z" id="形状结合"></path>
                </g>
            </g>
        </g>
    </g>
</svg>