<?xml version="1.0" encoding="UTF-8"?>
<svg width="150px" height="42px" viewBox="0 0 150 42" version="1.1" xmlns="http://www.w3.org/2000/svg" xmlns:xlink="http://www.w3.org/1999/xlink">
    <title>编组 5</title>
    <g id="页面-1" stroke="none" stroke-width="1" fill="none" fill-rule="evenodd">
        <g id="编组-5" transform="translate(0.000000, -0.000000)" fill="#27B876" fill-rule="nonzero">
            <path d="M145.703571,18.1714286 C145.703571,18.1714286 147.739286,20.0464286 149.303571,20.9571429 L150,19.9607143 C150,19.9607143 145.403571,17.025 145.703571,16.35 L145.703571,18.1607143 L145.703571,18.1714286 Z" id="路径"></path>
            <rect id="矩形" x="80.6035714" y="26.2392857" width="8.43214286" height="1.38214286"></rect>
            <rect id="矩形" x="122.432143" y="26.2071429" width="10.2214286" height="1.38214286"></rect>
            <rect id="矩形" x="139.767857" y="26.2071429" width="1.38214286" height="8.325"></rect>
            <rect id="矩形" x="100.821429" y="26.2071429" width="1.38214286" height="15.7821429"></rect>
            <rect id="矩形" x="91.9821429" y="26.2071429" width="1.38214286" height="8.25"></rect>
            <rect id="矩形" x="78.8035714" y="28.275" width="1.38214286" height="6.15"></rect>
            <polygon id="路径" points="106.5 41.9892857 105.075 41.9892857 109.242857 26.2071429 110.667857 26.2071429"></polygon>
            <g id="编组">
                <path d="M45.975,10.0392857 C45.975,10.0392857 35.8607143,8.52857143 34.35,0 C32.8392857,8.52857143 22.725,10.0392857 22.725,10.0392857 C12.4607143,11.6357143 7.48928571,4.24285714 7.48928571,4.24285714 C12.375,17.1107143 20.925,16.65 20.925,16.65 L47.7857143,16.65 C47.7857143,16.65 56.3357143,17.1 61.2214286,4.24285714 C61.2214286,4.24285714 56.25,11.6357143 45.9857143,10.0392857 L45.975,10.0392857 Z" id="路径"></path>
                <path d="M49.2214286,33.4607143 C49.2214286,33.4607143 36.2892857,31.5321429 34.35,20.625 C32.4214286,31.5321429 19.4785714,33.4607143 19.4785714,33.4607143 C6.35357143,35.4964286 0,26.0571429 0,26.0571429 C6.23571429,42.5035714 17.175,41.925 17.175,41.925 L51.525,41.925 C51.525,41.925 62.4535714,42.5035714 68.7,26.0571429 C68.7,26.0571429 62.3464286,35.5071429 49.2214286,33.4607143 Z" id="路径"></path>
            </g>
            <g id="编组" transform="translate(78.782143, 4.135714)">
                <rect id="矩形" x="0" y="6.65357143" width="5.25" height="1.38214286"></rect>
                <rect id="矩形" x="6.62142857" y="6.65357143" width="9.675" height="1.38214286"></rect>
                <rect id="矩形" x="18.0857143" y="1.38214286" width="16.5428571" height="1.38214286"></rect>
                <rect id="矩形" x="20.0892857" y="9.39642857" width="12.7928571" height="1.38214286"></rect>
                <rect id="矩形" x="21.3214286" y="12.1607143" width="10.3392857" height="1.38214286"></rect>
                <rect id="矩形" x="21.6214286" y="4.13571429" width="9.73928571" height="1.38214286"></rect>
                <rect id="矩形" x="21.6214286" y="6.64285714" width="9.73928571" height="1.38214286"></rect>
                <rect id="矩形" x="36.7607143" y="4.75809868e-16" width="6.87857143" height="1.38214286"></rect>
                <rect id="矩形" x="36.7607143" y="2.76428571" width="6.87857143" height="1.38214286"></rect>
                <rect id="矩形" x="54.8571429" y="1.38214286" width="5.85" height="1.38214286"></rect>
                <rect id="矩形" x="62.625" y="1.38214286" width="8.58214286" height="1.38214286"></rect>
                <rect id="矩形" x="3.86785714" y="0.0107142857" width="1.38214286" height="14.6785714"></rect>
                <rect id="矩形" x="39.5035714" y="1.38214286" width="1.38214286" height="15.1821429"></rect>
                <rect id="矩形" x="50.2821429" y="4.75809868e-16" width="1.38214286" height="16.8"></rect>
                <rect id="矩形" x="57.0964286" y="4.75809868e-16" width="1.38214286" height="15.2571429"></rect>
                <rect id="矩形" x="66.225" y="4.75809868e-16" width="1.38214286" height="7.2"></rect>
                <rect id="矩形" x="62.7857143" y="5.81785714" width="8.25" height="1.38214286"></rect>
                <rect id="矩形" x="25.6714286" y="4.75809868e-16" width="1.38214286" height="2.76428571"></rect>
                <rect id="矩形" x="25.6714286" y="13.3821429" width="1.38214286" height="2.11071429"></rect>
                <rect id="矩形" x="36.7607143" y="5.53928571" width="1.38214286" height="7.65"></rect>
                <rect id="矩形" x="42.2464286" y="5.53928571" width="1.38214286" height="7.84285714"></rect>
                <rect id="矩形" x="19.9285714" y="5.46428571" width="1.38214286" height="1.17857143"></rect>
                <path d="M3.86785714,14.7 C3.86785714,14.7 3.66428571,16.8642857 6.61071429,16.8642857 L6.61071429,15.4928571 C6.61071429,15.4928571 5.25,15.5142857 5.25,14.7 L4.55357143,14.1321429 L3.86785714,14.7 Z" id="路径"></path>
                <path d="M6.62142857,3.93214286 C6.62142857,3.93214286 13.1142857,2.775 16.2964286,0.0107142857 L16.2964286,1.55357143 C16.2964286,1.55357143 14.1428571,3.41785714 6.62142857,5.28214286 L6.62142857,3.92142857 L6.62142857,3.93214286 Z" id="路径"></path>
                <path d="M16.2964286,13.2 C16.2964286,13.2 9.80357143,12.0428571 6.62142857,9.27857143 L6.62142857,10.8214286 C6.62142857,10.8214286 8.775,12.6857143 16.2964286,14.55 L16.2964286,13.1892857 L16.2964286,13.2 Z" id="路径"></path>
                <path d="M21.6428571,4.13571429 C21.6428571,4.13571429 19.9285714,4.17857143 19.9285714,5.51785714 L21.6428571,5.51785714 L21.6428571,4.13571429 Z" id="路径"></path>
                <path d="M21.6428571,8.025 C21.6428571,8.025 19.9285714,7.98214286 19.9285714,6.64285714 L21.6428571,6.64285714 L21.6428571,8.025 L21.6428571,8.025 Z" id="路径"></path>
                <rect id="矩形" x="31.6607143" y="5.46428571" width="1.38214286" height="1.17857143"></rect>
                <path d="M31.3392857,4.13571429 C31.3392857,4.13571429 33.0535714,4.17857143 33.0535714,5.51785714 L31.3392857,5.51785714 L31.3392857,4.13571429 Z" id="路径"></path>
                <path d="M31.3392857,8.025 C31.3392857,8.025 33.0535714,7.98214286 33.0535714,6.64285714 L31.3392857,6.64285714 L31.3392857,8.025 L31.3392857,8.025 Z" id="路径"></path>
                <path d="M20.0892857,9.39642857 C20.0892857,9.39642857 18.525,9.34285714 18.525,10.7785714 L18.525,12.1607143 L19.875,12.1607143 L19.875,11.0571429 C19.875,11.0571429 19.8642857,10.7785714 20.0892857,10.7785714 L20.5178571,9.99642857 L20.0892857,9.39642857 L20.0892857,9.39642857 Z" id="路径"></path>
                <path d="M32.7964286,9.39642857 C32.7964286,9.39642857 34.3607143,9.34285714 34.3607143,10.7785714 L34.3607143,12.1607143 L33.0107143,12.1607143 L33.0107143,11.0571429 C33.0107143,11.0571429 33.0214286,10.7785714 32.7964286,10.7785714 L32.3678571,9.99642857 L32.7964286,9.39642857 L32.7964286,9.39642857 Z" id="路径"></path>
                <path d="M27.0535714,15.4714286 C27.0535714,15.4714286 27.1071429,17.0357143 25.6714286,17.0357143 L24.2892857,17.0357143 L24.2892857,15.6857143 L25.3928571,15.6857143 C25.3928571,15.6857143 25.6714286,15.6964286 25.6714286,15.4714286 L26.4535714,15.0428571 L27.0535714,15.4714286 Z" id="路径"></path>
                <path d="M58.4785714,15.2357143 C58.4785714,15.2357143 58.5321429,16.8 57.0964286,16.8 L55.7142857,16.8 L55.7142857,15.45 L56.8178571,15.45 C56.8178571,15.45 57.0964286,15.4607143 57.0964286,15.2357143 L57.8785714,14.8071429 L58.4785714,15.2357143 Z" id="路径"></path>
                <polygon id="路径" points="45.3428571 4.75809868e-16 45.3428571 1.38214286 48.9 3.05357143 48.9 1.71428571"></polygon>
                <polygon id="路径" points="45.2785714 5.52857143 45.2785714 6.91071429 48.8464286 8.58214286 48.8464286 7.23214286"></polygon>
                <path d="M71.0357143,5.81785714 L71.2071429,5.81785714 C71.2071429,5.81785714 71.4535714,11.625 63.3214286,16.8 L62.625,15.8035714 C62.625,15.8035714 68.5071429,12.3321429 69.6964286,7.2 L71.0357143,5.81785714 L71.0357143,5.81785714 Z" id="路径"></path>
                <path d="M62.7857143,5.81785714 L62.6357143,5.81785714 C62.6357143,5.81785714 62.4857143,8.58214286 65.1321429,12.0107143 C65.1321429,12.0107143 65.8178571,11.5928571 66.0428571,11.1107143 C66.0428571,11.1107143 64.7035714,9.53571429 64.1464286,7.2 L62.7964286,5.81785714 L62.7857143,5.81785714 Z" id="路径"></path>
                <path d="M67.7892857,13.1142857 C67.7892857,13.1142857 69.975,15.1928571 71.2071429,15.8035714 L69.3,15.6428571 L67.5428571,13.5964286 L67.3928571,13.1785714 L67.7785714,13.1142857 L67.7892857,13.1142857 Z" id="路径"></path>
                <path d="M60.7071429,5.81785714 L60.7071429,7.35 C60.7071429,7.35 56.5392857,9.36428571 54.8571429,10.0178571 L54.8571429,8.63571429 C54.8571429,8.63571429 58.425,7.125 60.7071429,5.80714286 L60.7071429,5.81785714 Z" id="路径"></path>
                <path d="M52.8964286,9.53571429 L52.8964286,10.9071429 C52.8964286,10.9071429 50.1321429,11.9892857 45.3428571,13.1785714 L45.3428571,11.775 C45.3428571,11.775 47.4642857,11.4107143 52.8964286,9.53571429 Z" id="路径"></path>
                <path d="M36.7607143,13.1142857 L36.7607143,14.5607143 C36.7607143,14.5607143 37.8535714,14.475 38.1428571,14.4428571 L38.1428571,13.1142857 L36.7607143,13.1142857 L36.7607143,13.1142857 Z" id="路径"></path>
                <path d="M42.2464286,12.4071429 L42.2464286,13.8321429 C42.2464286,13.8321429 43.2642857,13.6392857 43.6285714,13.5535714 L43.6285714,12.15 L42.2464286,12.3964286 L42.2464286,12.4071429 Z" id="路径"></path>
            </g>
            <rect id="矩形" x="93.2892857" y="33.0857143" width="7.78928571" height="1.38214286"></rect>
            <rect id="矩形" x="148.607143" y="26.2071429" width="1.38214286" height="15.7821429"></rect>
            <rect id="矩形" x="135.525" y="26.2071429" width="1.38214286" height="15.7821429"></rect>
            <rect id="矩形" x="127.017857" y="26.2071429" width="1.38214286" height="15.7821429"></rect>
            <rect id="矩形" x="118.178571" y="26.2071429" width="1.38214286" height="15.7821429"></rect>
            <rect id="矩形" x="80.2285714" y="40.6071429" width="8.80714286" height="1.38214286"></rect>
            <polygon id="矩形" transform="translate(144.843906, 34.105836) rotate(-29.680000) translate(-144.843906, -34.105836) " points="144.152835 25.4111933 145.534977 25.4111933 145.534977 42.800479 144.152835 42.800479"></polygon>
            <path d="M80.6035714,27.6214286 C80.6035714,27.6214286 80.1857143,27.7071429 80.1857143,28.275 L79.2642857,28.6928571 L78.8035714,28.275 C78.8035714,28.275 78.6,26.2392857 80.6035714,26.2392857" id="路径"></path>
            <polygon id="路径" points="113.882143 41.9892857 115.317857 41.9892857 111.15 26.2071429 109.714286 26.2071429"></polygon>
        </g>
    </g>
</svg>