<?xml version="1.0" encoding="UTF-8"?>
<svg width="960px" height="310px" viewBox="0 0 960 310" version="1.1" xmlns="http://www.w3.org/2000/svg" xmlns:xlink="http://www.w3.org/1999/xlink">
    <title>雷池简介（用户-雷池-服务器）</title>
    <defs>
        <rect id="path-1" x="0" y="0" width="230" height="230" rx="12"></rect>
        <filter x="-30.4%" y="-21.7%" width="160.9%" height="160.9%" filterUnits="objectBoundingBox" id="filter-2">
            <feOffset dx="0" dy="20" in="SourceAlpha" result="shadowOffsetOuter1"></feOffset>
            <feGaussianBlur stdDeviation="20" in="shadowOffsetOuter1" result="shadowBlurOuter1"></feGaussianBlur>
            <feColorMatrix values="0 0 0 0 0.568627451   0 0 0 0 0.619607843   0 0 0 0 0.670588235  0 0 0 0.2 0" type="matrix" in="shadowBlurOuter1"></feColorMatrix>
        </filter>
        <rect id="path-3" x="325" y="0" width="230" height="230" rx="12"></rect>
        <filter x="-30.4%" y="-21.7%" width="160.9%" height="160.9%" filterUnits="objectBoundingBox" id="filter-4">
            <feOffset dx="0" dy="20" in="SourceAlpha" result="shadowOffsetOuter1"></feOffset>
            <feGaussianBlur stdDeviation="20" in="shadowOffsetOuter1" result="shadowBlurOuter1"></feGaussianBlur>
            <feColorMatrix values="0 0 0 0 0.568627451   0 0 0 0 0.619607843   0 0 0 0 0.670588235  0 0 0 0.2 0" type="matrix" in="shadowBlurOuter1"></feColorMatrix>
        </filter>
        <rect id="path-5" x="48" y="65" width="122" height="70" rx="12"></rect>
        <filter x="-15.2%" y="-16.4%" width="130.3%" height="152.9%" filterUnits="objectBoundingBox" id="filter-6">
            <feOffset dx="0" dy="7" in="SourceAlpha" result="shadowOffsetOuter1"></feOffset>
            <feGaussianBlur stdDeviation="5" in="shadowOffsetOuter1" result="shadowBlurOuter1"></feGaussianBlur>
            <feColorMatrix values="0 0 0 0 0.568627451   0 0 0 0 0.619607843   0 0 0 0 0.670588235  0 0 0 0.3 0" type="matrix" in="shadowBlurOuter1"></feColorMatrix>
        </filter>
        <path d="M16,8 L8,8 C8,10.209139 9.790861,12 12,12 C14.209139,12 16,10.209139 16,8 Z M6,18 L18,18 C21.3137085,18 24,20.6862915 24,24 L24,26 L0,26 L0,24 C0,20.6862915 2.6862915,18 6,18 Z M12,16 C7.581722,16 4,12.418278 4,8 C4,3.581722 7.581722,0 12,0 C16.418278,0 20,3.581722 20,8 C20,12.418278 16.418278,16 12,16 Z" id="path-7"></path>
        <filter x="-29.2%" y="-19.2%" width="158.3%" height="153.8%" filterUnits="objectBoundingBox" id="filter-8">
            <feOffset dx="0" dy="2" in="SourceAlpha" result="shadowOffsetOuter1"></feOffset>
            <feGaussianBlur stdDeviation="2" in="shadowOffsetOuter1" result="shadowBlurOuter1"></feGaussianBlur>
            <feColorMatrix values="0 0 0 0 0.0588235294   0 0 0 0 0.776470588   0 0 0 0 0.760784314  0 0 0 0.301710009 0" type="matrix" in="shadowBlurOuter1"></feColorMatrix>
        </filter>
        <path d="M16,8 L8,8 C8,10.209139 9.790861,12 12,12 C14.209139,12 16,10.209139 16,8 Z M6,18 L18,18 C21.3137085,18 24,20.6862915 24,24 L24,26 L0,26 L0,24 C0,20.6862915 2.6862915,18 6,18 Z M12,16 C7.581722,16 4,12.418278 4,8 C4,3.581722 7.581722,0 12,0 C16.418278,0 20,3.581722 20,8 C20,12.418278 16.418278,16 12,16 Z" id="path-9"></path>
        <filter x="-29.2%" y="-19.2%" width="158.3%" height="153.8%" filterUnits="objectBoundingBox" id="filter-10">
            <feOffset dx="0" dy="2" in="SourceAlpha" result="shadowOffsetOuter1"></feOffset>
            <feGaussianBlur stdDeviation="2" in="shadowOffsetOuter1" result="shadowBlurOuter1"></feGaussianBlur>
            <feColorMatrix values="0 0 0 0 1   0 0 0 0 0.352941176   0 0 0 0 0.368627451  0 0 0 0.301710009 0" type="matrix" in="shadowBlurOuter1"></feColorMatrix>
        </filter>
        <path d="M16,8 L8,8 C8,10.209139 9.790861,12 12,12 C14.209139,12 16,10.209139 16,8 Z M6,18 L18,18 C21.3137085,18 24,20.6862915 24,24 L24,26 L0,26 L0,24 C0,20.6862915 2.6862915,18 6,18 Z M12,16 C7.581722,16 4,12.418278 4,8 C4,3.581722 7.581722,0 12,0 C16.418278,0 20,3.581722 20,8 C20,12.418278 16.418278,16 12,16 Z" id="path-11"></path>
        <filter x="-29.2%" y="-19.2%" width="158.3%" height="153.8%" filterUnits="objectBoundingBox" id="filter-12">
            <feOffset dx="0" dy="2" in="SourceAlpha" result="shadowOffsetOuter1"></feOffset>
            <feGaussianBlur stdDeviation="2" in="shadowOffsetOuter1" result="shadowBlurOuter1"></feGaussianBlur>
            <feColorMatrix values="0 0 0 0 0.258823529   0 0 0 0 0.560784314   0 0 0 0 0.976470588  0 0 0 0.301710009 0" type="matrix" in="shadowBlurOuter1"></feColorMatrix>
        </filter>
        <rect id="path-13" x="650" y="0" width="230" height="230" rx="12"></rect>
        <filter x="-30.4%" y="-21.7%" width="160.9%" height="160.9%" filterUnits="objectBoundingBox" id="filter-14">
            <feOffset dx="0" dy="20" in="SourceAlpha" result="shadowOffsetOuter1"></feOffset>
            <feGaussianBlur stdDeviation="20" in="shadowOffsetOuter1" result="shadowBlurOuter1"></feGaussianBlur>
            <feColorMatrix values="0 0 0 0 0.568627451   0 0 0 0 0.619607843   0 0 0 0 0.670588235  0 0 0 0.2 0" type="matrix" in="shadowBlurOuter1"></feColorMatrix>
        </filter>
        <path d="M71.5979217,20.0874393 C71.3726268,18.7217211 70.6967422,17.3560028 69.3449728,16.6731437 C59.4319979,10.982651 38.7048689,0.967383797 37.8036894,0.512144344 C36.6772149,-0.170714781 35.1001508,-0.170714781 33.9736763,0.512144344 C33.0724968,0.967383797 12.5706625,10.9826509 2.65768776,16.6731437 C1.30591847,17.3560028 0.630033823,18.7217211 0.404738871,20.0874393 C-4.32645365,66.2942402 33.9736763,81.5447607 34.4242661,81.7723803 C34.8748559,82 35.5507406,82 36.0013303,82 C36.4519201,82 37.1278047,82 37.5783944,81.7723803 C38.0289842,81.5447607 47.4913693,77.9028452 56.5031645,68.3428175 C64.6137803,59.6932685 74.0761653,44.2151284 71.5979217,20.0874393 Z" id="path-15"></path>
        <filter x="-23.6%" y="-15.9%" width="147.2%" height="141.5%" filterUnits="objectBoundingBox" id="filter-16">
            <feOffset dx="0" dy="4" in="SourceAlpha" result="shadowOffsetOuter1"></feOffset>
            <feGaussianBlur stdDeviation="5" in="shadowOffsetOuter1" result="shadowBlurOuter1"></feGaussianBlur>
            <feColorMatrix values="0 0 0 0 0.568627451   0 0 0 0 0.619607843   0 0 0 0 0.670588235  0 0 0 0.301054414 0" type="matrix" in="shadowBlurOuter1"></feColorMatrix>
        </filter>
        <polygon id="path-17" points="436.59509 82.9024931 448.935675 81.7582665 444.103842 96.8149835 450.625755 96.2102678 434.046652 123 435.904704 103.473403 430.51014 103.973591"></polygon>
        <filter x="-34.8%" y="-12.1%" width="169.6%" height="133.9%" filterUnits="objectBoundingBox" id="filter-18">
            <feOffset dx="0" dy="2" in="SourceAlpha" result="shadowOffsetOuter1"></feOffset>
            <feGaussianBlur stdDeviation="2" in="shadowOffsetOuter1" result="shadowBlurOuter1"></feGaussianBlur>
            <feColorMatrix values="0 0 0 0 0.258823529   0 0 0 0 0.560784314   0 0 0 0 0.976470588  0 0 0 0.3 0" type="matrix" in="shadowBlurOuter1"></feColorMatrix>
        </filter>
        <rect id="path-19" x="739" y="74" width="70" height="70" rx="12"></rect>
        <filter x="-26.4%" y="-16.4%" width="152.9%" height="152.9%" filterUnits="objectBoundingBox" id="filter-20">
            <feOffset dx="0" dy="7" in="SourceAlpha" result="shadowOffsetOuter1"></feOffset>
            <feGaussianBlur stdDeviation="5" in="shadowOffsetOuter1" result="shadowBlurOuter1"></feGaussianBlur>
            <feColorMatrix values="0 0 0 0 0.568627451   0 0 0 0 0.619607843   0 0 0 0 0.670588235  0 0 0 0.3 0" type="matrix" in="shadowBlurOuter1"></feColorMatrix>
        </filter>
        <path d="M12,2.18129358 C17.4128396,2.18129358 21.8187064,6.58427507 21.8187064,12 C21.8187064,17.4157249 17.4128396,21.8158211 12,21.8158211 C6.58716038,21.8158211 2.18129358,17.4128396 2.18129358,12 C2.18129358,6.58716038 6.58716038,2.18129358 12,2.18129358 M12,0 C5.3724453,0 0,5.3724453 0,12 C0,18.6275547 5.3724453,24 12,24 C18.6275547,24 24,18.6275547 24,12 C24,5.3724453 18.6275547,0 12,0 Z" id="path-21"></path>
        <filter x="-29.2%" y="-20.8%" width="158.3%" height="158.3%" filterUnits="objectBoundingBox" id="filter-22">
            <feOffset dx="0" dy="2" in="SourceAlpha" result="shadowOffsetOuter1"></feOffset>
            <feGaussianBlur stdDeviation="2" in="shadowOffsetOuter1" result="shadowBlurOuter1"></feGaussianBlur>
            <feColorMatrix values="0 0 0 0 0.258823529   0 0 0 0 0.560784314   0 0 0 0 0.976470588  0 0 0 0.3 0" type="matrix" in="shadowBlurOuter1"></feColorMatrix>
        </filter>
        <path d="M12,2.18129358 C13.5205578,2.18129358 15.8172638,6.09665785 15.8172638,12 C15.8172638,17.9033421 13.5205578,21.8158211 12,21.8158211 C10.4794422,21.8158211 8.18273623,17.9004568 8.18273623,12 C8.18273623,6.09954316 10.4794422,2.18129358 12,2.18129358 M12,0 C8.6876653,0 6.00144265,5.3724453 6.00144265,12 C6.00144265,18.6275547 8.6876653,24 12,24 C15.3123347,24 17.9985573,18.6275547 17.9985573,12 C17.9985573,5.3724453 15.3123347,0 12,0 Z" id="path-23"></path>
        <filter x="-58.3%" y="-20.8%" width="216.7%" height="158.3%" filterUnits="objectBoundingBox" id="filter-24">
            <feOffset dx="0" dy="2" in="SourceAlpha" result="shadowOffsetOuter1"></feOffset>
            <feGaussianBlur stdDeviation="2" in="shadowOffsetOuter1" result="shadowBlurOuter1"></feGaussianBlur>
            <feColorMatrix values="0 0 0 0 0.258823529   0 0 0 0 0.560784314   0 0 0 0 0.976470588  0 0 0 0.3 0" type="matrix" in="shadowBlurOuter1"></feColorMatrix>
        </filter>
        <path d="M1.09064679,7.63452753 L22.9093532,7.63452753 L22.9093532,9.81582111 L1.09064679,9.81582111 L1.09064679,7.63452753 Z M1.09064679,14.1812936 L22.9093532,14.1812936 L22.9093532,16.3625872 L1.09064679,16.3625872 L1.09064679,14.1812936 Z" id="path-25"></path>
        <filter x="-32.1%" y="-57.3%" width="164.2%" height="260.4%" filterUnits="objectBoundingBox" id="filter-26">
            <feOffset dx="0" dy="2" in="SourceAlpha" result="shadowOffsetOuter1"></feOffset>
            <feGaussianBlur stdDeviation="2" in="shadowOffsetOuter1" result="shadowBlurOuter1"></feGaussianBlur>
            <feColorMatrix values="0 0 0 0 0.258823529   0 0 0 0 0.560784314   0 0 0 0 0.976470588  0 0 0 0.3 0" type="matrix" in="shadowBlurOuter1"></feColorMatrix>
        </filter>
    </defs>
    <g id="官网设计" stroke="none" stroke-width="1" fill="none" fill-rule="evenodd">
        <g id="用户-雷池-服务器" transform="translate(-67.000000, -57.000000)">
            <g id="雷池简介（用户-雷池-服务器）" transform="translate(107.000000, 77.000000)">
                <g id="矩形">
                    <use fill="black" fill-opacity="1" filter="url(#filter-2)" xlink:href="#path-1"></use>
                    <use fill="#FFFFFF" fill-rule="evenodd" xlink:href="#path-1"></use>
                </g>
                <g id="矩形备份">
                    <use fill="black" fill-opacity="1" filter="url(#filter-4)" xlink:href="#path-3"></use>
                    <use fill="#FFFFFF" fill-rule="evenodd" xlink:href="#path-3"></use>
                </g>
                <circle id="椭圆形" stroke="#0FC6C2" stroke-width="3" cx="230" cy="115" r="6.5"></circle>
                <circle id="椭圆形备份-2880" stroke="#0FC6C2" stroke-width="3" cx="555" cy="115" r="6.5"></circle>
                <path id="路径-104" d="M309,108 L323,115 L309,122 L309,116 L238,116 L238,114 L309,114 L309,108 Z" fill="#0FC6C2" fill-rule="nonzero"></path>
                <path id="路径-104备份" d="M634,108 L648,115 L634,122 L634,116 L563,116 L563,114 L634,114 L634,108 Z" fill="#0FC6C2" fill-rule="nonzero"></path>
                <text id="用户" font-family="PingFangSC-Semibold, PingFang SC" font-size="20" font-weight="500" line-spacing="28" fill="#000000">
                    <tspan x="95" y="207">用户</tspan>
                </text>
                <text id="雷池" font-family="PingFangSC-Semibold, PingFang SC" font-size="20" font-weight="500" line-spacing="28" fill="#000000">
                    <tspan x="420" y="207">雷池</tspan>
                </text>
                <rect id="矩形备份-2" fill-opacity="0.2" fill="#0FC6C2" x="86" y="57" width="96" height="96" rx="12"></rect>
                <g id="矩形">
                    <use fill="black" fill-opacity="1" filter="url(#filter-6)" xlink:href="#path-5"></use>
                    <use fill="#FFFFFF" fill-rule="evenodd" xlink:href="#path-5"></use>
                </g>
                <g id="发布人" transform="translate(96.000000, 87.000000)" fill-rule="nonzero">
                    <g id="形状">
                        <use fill="black" fill-opacity="1" filter="url(#filter-8)" xlink:href="#path-7"></use>
                        <use fill="#0FC6C2" xlink:href="#path-7"></use>
                    </g>
                </g>
                <g id="发布人备份" transform="translate(61.000000, 87.000000)" fill-rule="nonzero">
                    <g id="形状">
                        <use fill="black" fill-opacity="1" filter="url(#filter-10)" xlink:href="#path-9"></use>
                        <use fill="#FF5A5E" xlink:href="#path-9"></use>
                    </g>
                </g>
                <g id="发布人备份-2" transform="translate(133.000000, 87.000000)" fill-rule="nonzero">
                    <g id="形状">
                        <use fill="black" fill-opacity="1" filter="url(#filter-12)" xlink:href="#path-11"></use>
                        <use fill="#428FF9" xlink:href="#path-11"></use>
                    </g>
                </g>
                <line x1="85" y1="103" x2="96" y2="103" id="路径-105" stroke="#919EAB" stroke-width="0.5" stroke-linecap="round"></line>
                <line x1="120" y1="103" x2="131" y2="103" id="路径-105备份" stroke="#919EAB" stroke-width="0.5" stroke-linecap="round"></line>
                <g id="矩形备份-6">
                    <use fill="black" fill-opacity="1" filter="url(#filter-14)" xlink:href="#path-13"></use>
                    <use fill="#FFFFFF" fill-rule="evenodd" xlink:href="#path-13"></use>
                </g>
                <text id="网站服务器备份" font-family="PingFangSC-Semibold, PingFang SC" font-size="20" font-weight="500" line-spacing="28" fill="#000000">
                    <tspan x="715" y="207">网站服务器</tspan>
                </text>
                <g id="安全盾牌" transform="translate(404.000000, 61.000000)" fill-rule="nonzero">
                    <g id="形状">
                        <use fill="black" fill-opacity="1" filter="url(#filter-16)" xlink:href="#path-15"></use>
                        <use fill="#FFFFFF" xlink:href="#path-15"></use>
                    </g>
                </g>
                <g id="蒙版">
                    <use fill="black" fill-opacity="1" filter="url(#filter-18)" xlink:href="#path-17"></use>
                    <use fill="#428FF9" fill-rule="evenodd" xlink:href="#path-17"></use>
                </g>
                <rect id="矩形备份-6" fill-opacity="0.2" fill="#0FC6C2" x="721" y="66" width="65" height="30" rx="4"></rect>
                <rect id="矩形备份-7" fill-opacity="0.2" fill="#0FC6C2" x="721" y="102" width="65" height="30" rx="4"></rect>
                <g id="矩形备份-8">
                    <use fill="black" fill-opacity="1" filter="url(#filter-20)" xlink:href="#path-19"></use>
                    <use fill="#FFFFFF" fill-rule="evenodd" xlink:href="#path-19"></use>
                </g>
                <path d="M774,98.0773361 L774,85.5 C774,82.7385763 771.761424,80.5 769,80.5 L738.5,80.5 L738.5,80.5" id="路径-106备份" stroke-opacity="0.2" stroke="#0FC6C2" stroke-width="4"></path>
                <circle id="椭圆形备份-2882" fill="#0FC6C2" cx="739" cy="81" r="5"></circle>
                <circle id="椭圆形备份-2883" fill="#0FC6C2" cx="739" cy="117" r="5"></circle>
                <circle id="椭圆形备份-2884" fill="#FF5A5E" cx="739" cy="117" r="5"></circle>
                <polygon id="路径-107备份" fill-opacity="0.2" fill="#FF5A5E" fill-rule="nonzero" transform="translate(753.687356, 117.000000) scale(1, -1) translate(-753.687356, -117.000000) " points="768.375719 115 765.629896 119 738.998993 119 738.998993 115"></polygon>
                <g id="网站_常规-(1)备份" transform="translate(762.000000, 97.000000)" fill-rule="nonzero">
                    <g id="形状">
                        <use fill="black" fill-opacity="1" filter="url(#filter-22)" xlink:href="#path-21"></use>
                        <use fill="#428FF9" xlink:href="#path-21"></use>
                    </g>
                    <g id="形状">
                        <use fill="black" fill-opacity="1" filter="url(#filter-24)" xlink:href="#path-23"></use>
                        <use fill="#428FF9" xlink:href="#path-23"></use>
                    </g>
                    <g id="形状">
                        <use fill="black" fill-opacity="1" filter="url(#filter-26)" xlink:href="#path-25"></use>
                        <use fill="#428FF9" xlink:href="#path-25"></use>
                    </g>
                </g>
            </g>
        </g>
    </g>
</svg>